SplineFontDB: 3.2
FontName: SimpleLcd-Regular-0.1.0
FullName: Simple Lcd Regular
FamilyName: Simple Lcd
Weight: Regular
Copyright: Created by Yuriy Sirotenko (https://ysirotenko,geekspace.info)
UComments: "2021-5-5: Created with FontForge (http://fontforge.org)"
Version: 0.1.0
ItalicAngle: 0
UnderlinePosition: 0
UnderlineWidth: 0
Ascent: 1000
Descent: 0
InvalidEm: 0
LayerCount: 2
Layer: 0 0 "Back" 1
Layer: 1 0 "Fore" 0
XUID: [1021 629 -1846781205 8958742]
StyleMap: 0x0000
FSType: 0
OS2Version: 0
OS2_WeightWidthSlopeOnly: 0
OS2_UseTypoMetrics: 1
CreationTime: 1620203578
ModificationTime: 1632472689
OS2TypoAscent: 0
OS2TypoAOffset: 1
OS2TypoDescent: 0
OS2TypoDOffset: 1
OS2TypoLinegap: 90
OS2WinAscent: 0
OS2WinAOffset: 1
OS2WinDescent: 0
OS2WinDOffset: 1
HheadAscent: 0
HheadAOffset: 1
HheadDescent: 0
HheadDOffset: 1
OS2Vendor: 'PfEd'
MarkAttachClasses: 1
DEI: 91125

StartChar: uni0000
Encoding: 0 0 0
Width: 1000
VWidth: 0
Flags: HW
HStem: -200 21G<284 314> -200 21G<284 314> 218 89<336 457> 671 128<136 191 405 461>
VStem: -7 134<331 663> 267 61<-157 195> 469 134<331 663>
LayerCount: 2
Fore
SplineSet
127 331 m 1x3e
 59 267 l 1
 -7 267 l 1
 -7 724 l 1
 22 757 l 1
 127 663 l 1
 127 331 l 1x3e
32 767 m 1
 74 799 l 1
 277 799 l 1
 278 744 l 1
 191 671 l 1
 136 671 l 1
 32 767 l 1
469 331 m 1
 469 663 l 1
 574 757 l 1
 603 725 l 1
 603 268 l 1
 537 268 l 1
 469 331 l 1
564 768 m 1
 461 672 l 1
 405 672 l 1
 319 744 l 1
 319 800 l 1
 522 800 l 1
 564 768 l 1
457 307 m 1
 508 254 l 1
 470 218 l 1
 336 218 l 1
 305 258 l 1
 333 307 l 1
 457 307 l 1
268 195 m 1
 298 236 l 1
 328 195 l 1
 328 -157 l 1
 300 -200 l 1xbe
 267 -158 l 1
 268 195 l 1
EndSplineSet
Validated: 1
EndChar

StartChar: zero
Encoding: 48 48 1
Width: 1000
VWidth: 0
Flags: HW
HStem: -200 4<87 453> -198 4<87 453> -86 4<148 410> 322 4<61 106> 324 4<61 104 501 560> 674 4<211 469> 676 4<213 469> 682 102<211 466> 794 4<161 513> 796 4<161 513>
LayerCount: 2
Fore
SplineSet
67 725 m 2x31
 111 772 l 2
 113 774 116 773 117 772 c 2
 192 669 l 2
 193 668 193 667 193 666 c 2
 167 368 l 2
 167 367 167 366 166 365 c 2
 108 323 l 2
 107 322 106 322 105 322 c 2
 61 324 l 2x29
 60 324 59 325 58 326 c 2
 36 354 l 2
 35 355 36 356 36 357 c 2
 66 722 l 2
 66 723 66 724 67 725 c 2x31
74 720 m 1
 113 763 l 1
 185 665 l 1
 159 370 l 1
 104 330 l 1
 63 332 l 1
 44 358 l 1
 74 720 l 1
70 722 m 1
 40 357 l 1
 61 328 l 1
 106 326 l 1x31
 163 368 l 1
 189 666 l 1
 114 770 l 1
 70 722 l 1
548 785 m 2
 607 708 l 2
 608 707 608 706 608 705 c 2
 586 353 l 2
 586 352 586 351 585 350 c 2
 563 328 l 2
 562 327 561 326 560 326 c 2
 501 325 l 2
 500 325 499 326 498 327 c 2
 451 371 l 2
 450 372 449 373 449 374 c 2
 470 615 l 2
 470 616 l 2
 541 784 l 2
 542 786 545 787 547 786 c 0
 548 786 548 785 548 785 c 2
546 775 m 1
 599 704 l 1
 578 355 l 1
 558 334 l 1
 503 333 l 1
 458 376 l 1
 478 613 l 1
 546 775 l 1
545 783 m 1
 474 614 l 1
 453 374 l 1
 501 329 l 1
 560 330 l 1
 582 353 l 1
 604 706 l 1
 545 783 l 1
141 784 m 1
 507 790 l 1
 466 684 l 1
 213 682 l 1
 141 784 l 1
161 800 m 2x2140
 513 798 l 2x2380
 515 798 517 796 517 794 c 0
 517 792 l 2
 472 679 l 2
 471 677 471 676 469 676 c 2
 211 674 l 2x2540
 210 674 209 675 208 676 c 2
 135 779 l 2
 134 781 134 784 136 785 c 2
 136 785 157 805 161 800 c 2x2140
138 782 m 1
 211 678 l 1
 469 680 l 1x2380
 513 794 l 1
 161 796 l 1x2540
 138 782 l 1
40 264 m 2
 103 269 l 2
 104 269 105 269 106 268 c 2
 149 230 l 2
 150 229 150 228 150 227 c 2
 129 -65 l 2
 129 -66 129 -67 128 -68 c 2
 31 -161 l 2
 29 -163 26 -163 25 -161 c 0
 25 -160 l 1
 -5 -110 l 2
 -5 -109 -6 -108 -6 -107 c 2
 19 231 l 2
 19 232 20 233 20 233 c 2
 37 262 l 2
 38 263 39 264 40 264 c 2
43 257 m 1
 102 260 l 1
 142 225 l 1
 121 -63 l 1
 29 -152 l 1
 2 -107 l 1
 27 230 l 1
 43 257 l 1
41 260 m 1
 23 231 l 1
 -2 -108 l 1
 28 -158 l 1
 125 -65 l 1
 146 227 l 1
 104 265 l 1
 41 260 l 1
414 -85 m 2
 457 -194 l 2
 458 -196 457 -199 455 -200 c 0
 453 -200 l 2xa1
 87 -198 l 2x61
 86 -198 85 -197 85 -197 c 2
 51 -176 l 2
 49 -175 49 -172 50 -170 c 0
 50 -170 l 2
 145 -83 l 2
 146 -82 147 -82 148 -82 c 2
 410 -82 l 2
 412 -82 413 -84 414 -85 c 2
407 -90 m 1
 448 -192 l 1
 88 -190 l 1
 59 -172 l 1
 150 -90 l 1
 407 -90 l 1
410 -86 m 1
 148 -86 l 1
 53 -173 l 1
 87 -194 l 1
 453 -196 l 1xa1
 410 -86 l 1
557 254 m 1
 531 -116 l 1
 482 -173 l 1
 426 -59 l 1
 447 223 l 1
 511 258 l 1
 557 254 l 1
441 228 m 2
 508 266 l 2
 509 266 510 266 511 266 c 2
 557 262 l 1
 557 262 580 235 573 231 c 2
 539 -118 l 2
 539 -119 538 -119 538 -120 c 2
 484 -182 l 2
 482 -184 480 -185 478 -183 c 0
 477 -181 l 2
 418 -62 l 2
 418 -61 418 -61 418 -60 c 2
 439 225 l 2
 439 226 440 227 441 228 c 2
443 225 m 1
 422 -60 l 1
 481 -180 l 1
 535 -118 l 1
 569 231 l 1
 557 258 l 1
 510 262 l 1
 443 225 l 1
EndSplineSet
Validated: 37
EndChar

StartChar: one
Encoding: 49 49 2
Width: 1000
VWidth: 0
Flags: HW
HStem: 324 4<79 139>
LayerCount: 2
Fore
SplineSet
127 794 m 2
 187 716 l 2
 188 715 188 714 188 713 c 2
 166 352 l 2
 166 351 166 350 165 349 c 2
 142 326 l 2
 141 325 140 325 139 325 c 2
 79 324 l 2
 78 324 77 324 76 325 c 2
 27 371 l 2
 26 372 26 373 26 374 c 2
 47 620 l 2
 47 621 l 2
 120 793 l 2
 121 795 123 797 125 796 c 0
 126 796 127 794 127 794 c 2
125 784 m 1
 179 712 l 1
 158 354 l 1
 137 333 l 1
 80 332 l 1
 34 375 l 1
 55 619 l 1
 125 784 l 1
123 792 m 1
 51 620 l 1
 30 374 l 1
 79 328 l 1
 139 329 l 1
 162 352 l 1
 184 713 l 1
 123 792 l 1
136 251 m 1
 109 -128 l 1
 59 -185 l 1
 2 -69 l 1
 24 219 l 1
 89 255 l 1
 136 251 l 1
18 225 m 2
 86 263 l 2
 87 263 88 264 89 264 c 2
 136 260 l 1
 136 260 160 231 152 227 c 2
 117 -130 l 2
 117 -131 116 -131 116 -132 c 2
 61 -195 l 2
 59 -197 57 -198 55 -196 c 0
 54 -194 l 2
 -6 -72 l 2
 -6 -71 -6 -71 -6 -70 c 2
 16 222 l 2
 16 223 17 224 18 225 c 2
20 221 m 1
 -2 -70 l 1
 58 -193 l 1
 113 -129 l 1
 148 228 l 1
 136 256 l 1
 88 260 l 1
 20 221 l 1
EndSplineSet
Validated: 33
EndChar

StartChar: two
Encoding: 50 50 3
Width: 1000
VWidth: 0
Flags: HW
HStem: -200 4<87 453> -198 4<87 453> -86 4<148 410> 235 4<171 422> 237 4<173 422> 325 4<501 560> 359 4<186 431> 674 4<211 469> 676 4<213 469> 682 102<211 466> 794 4<161 513> 796 4<161 513>
LayerCount: 2
Fore
SplineSet
548 785 m 2x2640
 607 708 l 2
 608 707 608 706 608 705 c 2
 586 353 l 2
 586 352 586 351 585 350 c 2
 563 328 l 2
 562 327 561 326 560 326 c 2
 501 325 l 2
 500 325 499 325 498 326 c 2
 451 371 l 2
 450 372 449 373 449 374 c 2
 470 615 l 2
 470 616 l 2
 541 784 l 2
 542 786 545 787 547 786 c 0
 548 786 548 785 548 785 c 2x2640
546 775 m 1
 599 704 l 1
 578 355 l 1
 558 334 l 1
 503 333 l 1
 458 376 l 1
 478 613 l 1
 546 775 l 1
545 783 m 1
 474 614 l 1
 453 374 l 1
 501 329 l 1
 560 330 l 1
 582 353 l 1
 604 706 l 1
 545 783 l 1
141 784 m 1
 507 790 l 1
 466 684 l 1
 213 682 l 1
 141 784 l 1
161 800 m 2x2650
 513 798 l 2x26e0
 515 798 517 796 517 794 c 0
 517 792 l 2
 472 679 l 2
 471 677 471 676 469 676 c 2
 211 674 l 2x2750
 210 674 209 675 208 676 c 2
 135 779 l 2
 134 781 134 784 136 785 c 2
 136 785 157 805 161 800 c 2x2650
138 782 m 1
 211 678 l 1
 469 680 l 1x26e0
 513 794 l 1
 161 796 l 1x2750
 138 782 l 1
186 363 m 2
 431 362 l 2
 432 362 433 362 434 361 c 2
 501 303 l 2
 503 301 501 298 500 297 c 2
 424 238 l 2
 423 237 423 237 422 237 c 2x2e40
 172 235 l 2x3640
 171 235 170 235 169 236 c 2
 104 298 l 2
 102 300 103 303 104 304 c 2
 183 362 l 2
 184 363 185 363 186 363 c 2
187 355 m 1
 430 354 l 1
 492 300 l 1
 421 245 l 1
 173 243 l 1
 113 301 l 1
 187 355 l 1
186 359 m 1
 107 301 l 1
 171 239 l 1
 422 241 l 1x2e40
 498 300 l 1
 431 358 l 1
 186 359 l 1
40 264 m 2
 103 269 l 2
 104 269 105 269 106 268 c 2
 149 230 l 2
 150 229 150 228 150 227 c 2
 129 -65 l 2
 129 -66 129 -67 128 -68 c 2
 31 -161 l 2
 29 -163 26 -163 25 -161 c 0
 25 -160 l 1
 -5 -110 l 2
 -5 -109 -6 -108 -6 -107 c 2
 19 231 l 2
 19 232 20 233 20 233 c 2
 37 262 l 2
 38 263 39 264 40 264 c 2
43 257 m 1
 102 260 l 1
 142 225 l 1
 121 -63 l 1
 29 -152 l 1
 2 -107 l 1
 27 230 l 1
 43 257 l 1
41 260 m 1
 23 231 l 1
 -2 -108 l 1
 28 -158 l 1
 125 -65 l 1
 146 227 l 1
 104 265 l 1
 41 260 l 1
414 -85 m 2
 457 -194 l 2
 458 -196 457 -199 455 -200 c 0
 453 -200 l 2xa640
 87 -198 l 2x6640
 86 -198 85 -197 85 -197 c 2
 51 -176 l 2
 49 -175 49 -172 50 -170 c 0
 50 -170 l 2
 145 -83 l 2
 146 -82 147 -82 148 -82 c 2
 410 -82 l 2
 412 -82 413 -84 414 -85 c 2
407 -90 m 1
 447 -192 l 1
 88 -190 l 1
 59 -172 l 1
 150 -90 l 1
 407 -90 l 1
410 -86 m 1
 148 -86 l 1
 53 -173 l 1
 87 -194 l 1
 453 -196 l 1xa640
 410 -86 l 1
EndSplineSet
Validated: 5
EndChar

StartChar: three
Encoding: 51 51 4
Width: 1000
VWidth: 0
Flags: HW
HStem: -200 4<35 401> -198 4<35 401> -86 4<96 358> 235 4<119 370> 237 4<121 370> 325 4<449 508> 359 4<133 379> 674 4<159 416> 676 4<161 416> 682 102<159 414> 794 4<109 461> 796 4<109 461>
LayerCount: 2
Fore
SplineSet
496 785 m 2x2640
 555 708 l 2
 556 707 555 706 555 705 c 2
 534 352 l 2
 534 351 534 351 533 350 c 2
 511 328 l 2
 510 327 509 326 508 326 c 2
 449 325 l 2
 448 325 447 326 446 327 c 2
 398 371 l 2
 397 372 397 373 397 374 c 2
 417 615 l 2
 418 616 l 2
 489 784 l 2
 490 786 492 787 494 786 c 0
 495 786 496 785 496 785 c 2x2640
494 775 m 1
 547 704 l 1
 526 355 l 1
 506 334 l 1
 450 333 l 1
 405 376 l 1
 425 613 l 1
 494 775 l 1
492 783 m 1
 421 614 l 1
 401 374 l 1
 449 329 l 1
 508 330 l 1
 530 353 l 1
 551 706 l 1
 492 783 l 1
89 784 m 1
 455 790 l 1
 414 684 l 1
 161 682 l 1
 89 784 l 1
109 800 m 2x2650
 461 798 l 2x26e0
 463 798 465 796 465 794 c 0
 465 792 l 2
 420 679 l 2
 419 677 418 676 416 676 c 2
 159 674 l 2x2750
 158 674 157 675 156 676 c 2
 82 779 l 2
 81 781 82 784 84 785 c 2
 84 785 105 805 109 800 c 2x2650
86 782 m 1
 159 678 l 1
 416 680 l 1x26e0
 461 794 l 1
 109 796 l 1x2750
 86 782 l 1
133 363 m 2
 379 362 l 2
 380 362 381 362 382 361 c 2
 448 303 l 2
 450 301 449 298 448 297 c 2
 372 238 l 2
 371 237 371 237 370 237 c 2x2e40
 119 235 l 2x3640
 118 235 117 235 116 236 c 2
 52 298 l 2
 50 300 51 303 52 304 c 2
 131 362 l 2
 132 363 132 363 133 363 c 2
135 355 m 1
 377 354 l 1
 439 300 l 1
 368 245 l 1
 121 243 l 1
 61 301 l 1
 135 355 l 1
133 359 m 1
 54 301 l 1
 119 239 l 1
 370 241 l 1x2e40
 446 300 l 1
 379 358 l 1
 133 359 l 1
361 -85 m 2
 405 -194 l 2
 406 -196 404 -199 402 -200 c 0
 401 -200 l 2xa640
 35 -198 l 2x6640
 34 -198 33 -197 33 -197 c 2
 -2 -176 l 2
 -4 -175 -4 -172 -3 -170 c 0
 -2 -170 l 2
 93 -83 l 2
 94 -82 95 -82 96 -82 c 2
 358 -82 l 2
 360 -82 360 -84 361 -85 c 2
355 -90 m 1
 395 -192 l 1
 36 -190 l 1
 7 -172 l 1
 97 -90 l 1
 355 -90 l 1
358 -86 m 1
 96 -86 l 1
 1 -173 l 1
 35 -194 l 1
 401 -196 l 1xa640
 358 -86 l 1
504 254 m 1
 478 -116 l 1
 430 -173 l 1
 374 -59 l 1
 395 223 l 1
 459 258 l 1
 504 254 l 1
389 228 m 2
 456 266 l 2
 457 266 457 266 458 266 c 2
 505 262 l 1
 505 262 528 235 521 231 c 2
 486 -118 l 2
 486 -119 485 -119 485 -120 c 2
 432 -182 l 2
 430 -184 428 -185 426 -183 c 0
 425 -181 l 2
 366 -62 l 2
 366 -61 366 -61 366 -60 c 2
 387 225 l 2
 387 226 388 227 389 228 c 2
391 225 m 1
 370 -60 l 1
 429 -180 l 1
 482 -118 l 1
 517 231 l 1
 505 258 l 1
 458 262 l 1
 391 225 l 1
EndSplineSet
Validated: 37
EndChar

StartChar: four
Encoding: 52 52 5
Width: 1000
VWidth: 0
Flags: HW
HStem: 232 4<133 389> 234 4<134 389> 321 4<20 65> 323 4<20 64 470 530> 358 4<147 398>
LayerCount: 2
Fore
SplineSet
26 732 m 2x28
 71 781 l 2
 73 783 76 783 77 781 c 2
 154 675 l 2
 155 674 155 673 155 672 c 2
 129 367 l 2
 129 366 128 365 127 364 c 2
 68 322 l 2
 67 321 66 321 65 321 c 2
 20 323 l 2x18
 19 323 17 324 16 325 c 2
 -5 354 l 2
 -6 355 -6 356 -6 357 c 2
 25 730 l 2
 25 731 25 731 26 732 c 2x28
33 728 m 1
 73 772 l 1
 146 671 l 1
 121 370 l 1
 64 329 l 1
 22 331 l 1
 2 357 l 1
 33 728 l 1
29 730 m 1
 -2 356 l 1
 20 327 l 1
 65 325 l 1x28
 125 368 l 1
 151 673 l 1
 74 778 l 1
 29 730 l 1
518 794 m 2
 578 716 l 2
 579 715 579 714 579 713 c 2
 557 352 l 2
 557 351 557 350 556 349 c 2
 533 326 l 2
 532 325 531 325 530 325 c 2
 470 324 l 2
 469 324 468 324 467 325 c 2
 418 371 l 2
 417 372 417 373 417 374 c 2
 438 620 l 2
 438 621 l 2
 511 793 l 2
 512 795 515 797 517 796 c 0
 518 796 518 794 518 794 c 2
516 784 m 1
 571 712 l 1
 549 354 l 1
 528 333 l 1
 472 332 l 1
 426 375 l 1
 446 619 l 1
 516 784 l 1
515 792 m 1
 442 620 l 1
 421 374 l 1
 470 328 l 1
 530 329 l 1
 553 352 l 1
 575 713 l 1
 515 792 l 1
147 362 m 2
 398 361 l 2
 399 361 400 361 401 360 c 2
 470 301 l 2
 472 299 470 296 469 295 c 2
 392 235 l 2
 391 234 390 234 389 234 c 2x48
 133 232 l 2x88
 132 232 131 232 130 233 c 2
 64 296 l 2
 62 298 63 301 64 302 c 2
 145 362 l 2
 146 363 146 362 147 362 c 2
149 354 m 1
 397 353 l 1
 460 298 l 1
 388 242 l 1
 134 240 l 1
 73 299 l 1
 149 354 l 1
147 358 m 1
 66 299 l 1
 133 236 l 1
 389 238 l 1x48
 467 298 l 1
 398 357 l 1
 147 358 l 1
527 251 m 1
 500 -128 l 1
 450 -185 l 1
 393 -69 l 1
 415 219 l 1
 480 255 l 1
 527 251 l 1
409 225 m 2
 477 263 l 2
 478 263 479 264 480 264 c 2
 527 260 l 1
 527 260 552 231 544 227 c 2
 508 -130 l 2
 508 -131 507 -131 507 -132 c 2
 452 -195 l 2
 450 -197 448 -198 446 -196 c 0
 446 -194 l 2
 385 -72 l 2
 385 -71 385 -71 385 -70 c 2
 407 222 l 2
 407 223 408 224 409 225 c 2
411 221 m 1
 389 -70 l 1
 449 -193 l 1
 504 -129 l 1
 540 228 l 1
 527 256 l 1
 479 260 l 1
 411 221 l 1
EndSplineSet
Validated: 33
EndChar

StartChar: five
Encoding: 53 53 6
Width: 1000
VWidth: 0
Flags: HW
HStem: -200 4<46 412> -198 4<46 412> -86 4<107 368> 235 4<130 380> 237 4<131 380> 322 4<19 64> 324 4<19 64> 359 4<144 390> 674 4<169 427> 676 4<170 427> 682 102<169 424> 794 4<120 472> 796 4<120 472>
LayerCount: 2
Fore
SplineSet
26 725 m 2x2520
 69 772 l 2
 71 774 74 773 75 772 c 2
 150 669 l 2
 151 668 151 667 151 666 c 2
 126 368 l 2
 126 367 125 366 124 365 c 2
 66 323 l 2
 65 322 65 322 64 322 c 2
 19 324 l 2x2320
 18 324 17 325 16 326 c 2
 -5 354 l 2
 -6 355 -6 356 -6 357 c 2
 24 722 l 2
 24 723 25 724 26 725 c 2x2520
32 720 m 1
 72 763 l 1
 143 665 l 1
 118 370 l 1
 63 330 l 1
 21 332 l 1
 2 358 l 1
 32 720 l 1
28 722 m 1
 -2 357 l 1
 19 328 l 1
 64 326 l 1x2520
 122 368 l 1
 147 666 l 1
 72 770 l 1
 28 722 l 1
100 784 m 1
 466 790 l 1
 424 684 l 1
 172 682 l 1
 100 784 l 1
120 800 m 2x2128
 472 798 l 2x2170
 474 798 476 796 476 794 c 0
 475 792 l 2
 431 679 l 2
 430 677 429 676 427 676 c 2
 170 674 l 2x21a8
 169 674 167 675 166 676 c 2
 93 779 l 2
 92 781 92 784 94 785 c 2
 94 785 116 805 120 800 c 2x2128
96 782 m 1
 169 678 l 1
 427 680 l 1x2170
 472 794 l 1
 120 796 l 1x21a8
 96 782 l 1
144 363 m 2
 390 362 l 2
 391 362 391 362 392 361 c 2
 459 303 l 2
 461 301 460 298 459 297 c 2
 383 238 l 2
 382 237 381 237 380 237 c 2x2920
 130 235 l 2x3120
 129 235 128 235 127 236 c 2
 62 298 l 2
 60 300 62 303 63 304 c 2
 142 362 l 2
 143 363 143 363 144 363 c 2
145 355 m 1
 388 354 l 1
 450 300 l 1
 379 245 l 1
 131 243 l 1
 71 301 l 1
 145 355 l 1
144 359 m 1
 65 301 l 1
 130 239 l 1
 380 241 l 1x2920
 456 300 l 1
 390 358 l 1
 144 359 l 1
372 -85 m 2
 416 -194 l 2
 417 -196 415 -199 413 -200 c 0
 412 -200 l 2xa120
 46 -198 l 2x6120
 45 -198 44 -197 44 -197 c 2
 9 -176 l 2
 7 -175 7 -172 8 -170 c 0
 9 -170 l 2
 104 -83 l 2
 105 -82 106 -82 107 -82 c 2
 368 -82 l 2
 370 -82 371 -84 372 -85 c 2
366 -90 m 1
 406 -192 l 1
 47 -190 l 1
 18 -172 l 1
 108 -90 l 1
 366 -90 l 1
368 -86 m 1
 107 -86 l 1
 11 -173 l 1
 46 -194 l 1
 412 -196 l 1xa120
 368 -86 l 1
515 254 m 1
 489 -116 l 1
 440 -173 l 1
 385 -59 l 1
 406 222 l 1
 470 258 l 1
 515 254 l 1
400 228 m 2
 467 266 l 2
 468 266 468 266 469 266 c 2
 516 262 l 1
 516 262 538 235 531 231 c 2
 497 -118 l 2
 497 -119 496 -119 496 -120 c 2
 442 -182 l 2
 440 -184 438 -185 436 -183 c 0
 436 -181 l 2
 377 -62 l 2
 377 -61 376 -61 376 -60 c 2
 398 225 l 2
 398 226 399 227 400 228 c 2
402 225 m 1
 380 -60 l 1
 439 -180 l 1
 493 -118 l 1
 527 231 l 1
 515 258 l 1
 469 262 l 1
 402 225 l 1
EndSplineSet
Validated: 33
EndChar

StartChar: six
Encoding: 54 54 7
Width: 1000
VWidth: 0
Flags: HW
HStem: -200 4<87 453> -198 4<87 453> -86 4<148 410> 235 4<171 422> 237 4<173 422> 322 4<61 106> 324 4<61 105> 359 4<186 431> 674 4<211 469> 676 4<211 469> 682 102<211 466> 794 4<161 513> 796 4<161 513>
LayerCount: 2
Fore
SplineSet
67 725 m 2x2520
 111 772 l 2
 113 774 116 773 117 772 c 2
 192 669 l 2
 193 668 193 667 193 666 c 2
 167 368 l 2
 167 367 167 366 166 365 c 2
 108 323 l 2
 107 322 106 322 105 322 c 2
 61 324 l 2x2320
 60 324 59 325 58 326 c 2
 36 354 l 2
 35 355 36 356 36 357 c 2
 66 722 l 2
 66 723 66 724 67 725 c 2x2520
74 720 m 1
 113 763 l 1
 185 665 l 1
 159 370 l 1
 104 330 l 1
 63 332 l 1
 44 358 l 1
 74 720 l 1
70 722 m 1
 40 357 l 1
 61 328 l 1
 106 326 l 1x2520
 163 368 l 1
 189 666 l 1
 114 770 l 1
 70 722 l 1
141 784 m 1
 507 790 l 1
 466 684 l 1
 213 682 l 1
 141 784 l 1
161 800 m 2x2128
 513 798 l 2x2170
 515 798 517 796 517 794 c 0
 517 792 l 2
 472 679 l 2
 471 677 471 676 469 676 c 2
 211 674 l 2x21a8
 210 674 209 675 208 676 c 2
 135 779 l 2
 134 781 134 784 136 785 c 2
 136 785 157 805 161 800 c 2x2128
138 782 m 1
 211 678 l 1
 469 680 l 1x2170
 513 794 l 1
 161 796 l 1x21a8
 138 782 l 1
186 363 m 2
 431 362 l 2
 432 362 433 362 434 361 c 2
 501 303 l 2
 503 301 502 298 501 297 c 2
 424 238 l 2
 423 237 423 237 422 237 c 2x2920
 171 235 l 2x3120
 170 235 170 235 169 236 c 2
 104 298 l 2
 102 300 103 303 104 304 c 2
 183 362 l 2
 184 363 185 363 186 363 c 2
187 355 m 1
 430 354 l 1
 492 300 l 1
 421 245 l 1
 173 243 l 1
 113 301 l 1
 187 355 l 1
186 359 m 1
 107 301 l 1
 171 239 l 1
 422 241 l 1x2920
 498 300 l 1
 431 358 l 1
 186 359 l 1
40 264 m 2
 103 269 l 2
 104 269 105 269 106 268 c 2
 149 230 l 2
 150 229 150 228 150 227 c 2
 129 -65 l 2
 129 -66 129 -67 128 -68 c 2
 31 -161 l 2
 29 -163 26 -163 25 -161 c 0
 25 -160 l 1
 -5 -110 l 2
 -5 -109 -6 -108 -6 -107 c 2
 19 231 l 2
 19 232 20 233 20 233 c 2
 37 262 l 2
 38 263 39 264 40 264 c 2
43 257 m 1
 102 260 l 1
 142 225 l 1
 121 -63 l 1
 29 -152 l 1
 2 -107 l 1
 27 230 l 1
 43 257 l 1
41 260 m 1
 23 231 l 1
 -2 -108 l 1
 28 -158 l 1
 125 -65 l 1
 146 227 l 1
 104 265 l 1
 41 260 l 1
414 -85 m 2
 457 -194 l 2
 458 -196 457 -199 455 -200 c 0
 453 -200 l 2xa120
 87 -198 l 2x6120
 86 -198 85 -197 85 -197 c 2
 51 -176 l 2
 49 -175 49 -172 50 -170 c 0
 50 -170 l 2
 145 -83 l 2
 146 -82 147 -82 148 -82 c 2
 410 -82 l 2
 412 -82 413 -84 414 -85 c 2
407 -90 m 1
 448 -192 l 1
 88 -190 l 1
 59 -172 l 1
 150 -90 l 1
 407 -90 l 1
410 -86 m 1
 148 -86 l 1
 53 -173 l 1
 87 -194 l 1
 453 -196 l 1xa120
 410 -86 l 1
557 254 m 1
 531 -116 l 1
 482 -173 l 1
 426 -59 l 1
 447 223 l 1
 511 258 l 1
 557 254 l 1
441 228 m 2
 508 266 l 2
 509 266 510 266 511 266 c 2
 557 262 l 1
 557 262 580 235 573 231 c 2
 539 -118 l 2
 539 -119 538 -119 538 -120 c 2
 484 -182 l 2
 482 -184 480 -185 478 -183 c 0
 477 -181 l 2
 418 -62 l 2
 418 -61 418 -61 418 -60 c 2
 439 225 l 2
 439 226 440 227 441 228 c 2
443 225 m 1
 422 -60 l 1
 481 -180 l 1
 535 -118 l 1
 569 231 l 1
 557 258 l 1
 510 262 l 1
 443 225 l 1
EndSplineSet
Validated: 37
EndChar

StartChar: seven
Encoding: 55 55 8
Width: 1000
VWidth: 0
Flags: HW
HStem: 319 4<368 427> 673 4<74 335> 675 4<74 335> 681 103<74 332> 794 4<23 380> 796 4<23 380>
LayerCount: 2
Fore
SplineSet
415 785 m 1x90
 475 707 l 2
 476 706 475 705 475 704 c 2
 454 347 l 2
 454 346 454 345 453 344 c 2
 430 321 l 2
 429 320 428 320 427 320 c 2
 368 319 l 2
 367 319 366 319 365 320 c 2
 317 365 l 2
 316 366 315 368 315 369 c 2
 336 612 l 2
 336 614 l 2
 408 784 l 2
 409 786 412 787 414 786 c 0
 415 786 415 785 415 785 c 1x90
413 775 m 1
 467 703 l 1
 446 349 l 1
 425 328 l 1
 369 327 l 1
 324 370 l 1
 344 611 l 1
 413 775 l 1
412 783 m 1
 340 612 l 1
 319 368 l 1
 368 323 l 1
 427 324 l 1
 450 347 l 1
 471 704 l 1
 412 783 l 1
3 784 m 1
 374 790 l 1
 332 683 l 1
 76 681 l 1
 3 784 l 1
23 800 m 2x94
 380 798 l 2xb8
 382 798 384 796 384 794 c 0
 384 792 l 2
 338 677 l 2
 337 675 337 675 335 675 c 2
 74 673 l 2xd4
 73 673 71 673 70 674 c 2
 -4 779 l 2
 -5 781 -4 784 -2 785 c 2
 -2 785 19 805 23 800 c 2x94
0 782 m 1
 74 677 l 1
 335 679 l 1xb8
 380 794 l 1
 23 796 l 1xd4
 0 782 l 1
424 247 m 1
 398 -128 l 1
 348 -185 l 1
 292 -71 l 1
 313 215 l 1
 378 251 l 1
 424 247 l 1
307 221 m 2
 375 259 l 2
 376 259 376 259 377 259 c 2
 424 255 l 1
 424 255 448 227 441 223 c 2
 406 -130 l 2
 406 -131 405 -132 405 -133 c 2
 350 -195 l 2
 348 -197 346 -198 344 -196 c 0
 343 -195 l 2
 284 -73 l 2
 284 -72 283 -72 283 -71 c 2
 305 218 l 2
 305 219 306 220 307 221 c 2
309 217 m 1
 287 -71 l 1
 347 -193 l 1
 402 -130 l 1
 436 224 l 1
 424 251 l 1
 377 255 l 1
 309 217 l 1
EndSplineSet
Validated: 37
EndChar

StartChar: eight
Encoding: 56 56 9
Width: 1000
VWidth: 0
Flags: HW
HStem: -200 4<87 453> -198 4<87 453> -86 4<148 410> 235 4<171 422> 237 4<173 422> 322 4<61 106> 324 4<61 104 501 560> 359 4<186 431> 674 4<211 469> 676 4<213 469> 682 102<211 466> 794 4<161 513> 796 4<161 513>
LayerCount: 2
Fore
SplineSet
67 725 m 2x2520
 111 772 l 2
 113 774 116 773 117 772 c 2
 192 669 l 2
 193 668 193 667 193 666 c 2
 167 368 l 2
 167 367 167 366 166 365 c 2
 108 323 l 2
 107 322 106 322 105 322 c 2
 61 324 l 2x2320
 60 324 59 325 58 326 c 2
 36 354 l 2
 35 355 36 356 36 357 c 2
 66 722 l 2
 66 723 66 724 67 725 c 2x2520
74 720 m 1
 113 763 l 1
 185 665 l 1
 159 370 l 1
 104 330 l 1
 63 332 l 1
 44 358 l 1
 74 720 l 1
70 722 m 1
 40 357 l 1
 61 328 l 1
 106 326 l 1x2520
 163 368 l 1
 189 666 l 1
 114 770 l 1
 70 722 l 1
548 785 m 2
 607 708 l 2
 608 707 608 706 608 705 c 2
 586 353 l 2
 586 352 586 351 585 350 c 2
 563 328 l 2
 562 327 561 326 560 326 c 2
 501 325 l 2
 500 325 499 325 498 326 c 2
 451 371 l 2
 450 372 449 373 449 374 c 2
 470 615 l 2
 470 616 l 2
 541 784 l 2
 542 786 545 787 547 786 c 0
 548 786 548 785 548 785 c 2
546 775 m 1
 599 704 l 1
 578 355 l 1
 558 334 l 1
 503 333 l 1
 458 376 l 1
 478 613 l 1
 546 775 l 1
545 783 m 1
 474 614 l 1
 453 374 l 1
 501 329 l 1
 560 330 l 1
 582 353 l 1
 604 706 l 1
 545 783 l 1
141 784 m 1
 507 790 l 1
 466 684 l 1
 213 682 l 1
 141 784 l 1
161 800 m 2x2128
 513 798 l 2x2170
 515 798 517 796 517 794 c 0
 517 792 l 2
 472 679 l 2
 471 677 471 676 469 676 c 2
 211 674 l 2x21a8
 210 674 209 675 208 676 c 2
 135 779 l 2
 134 781 134 784 136 785 c 2
 136 785 157 805 161 800 c 2x2128
138 782 m 1
 211 678 l 1
 469 680 l 1x2170
 513 794 l 1
 161 796 l 1x21a8
 138 782 l 1
186 363 m 2
 431 362 l 2
 432 362 433 362 434 361 c 2
 501 303 l 2
 503 301 502 298 501 297 c 2
 424 238 l 2
 423 237 423 237 422 237 c 2x2920
 171 235 l 2x3120
 170 235 170 235 169 236 c 2
 104 298 l 2
 102 300 103 303 104 304 c 2
 183 362 l 2
 184 363 185 363 186 363 c 2
187 355 m 1
 430 354 l 1
 492 300 l 1
 421 245 l 1
 173 243 l 1
 113 301 l 1
 187 355 l 1
186 359 m 1
 107 301 l 1
 171 239 l 1
 422 241 l 1x2920
 498 300 l 1
 431 358 l 1
 186 359 l 1
40 264 m 2
 103 269 l 2
 104 269 105 269 106 268 c 2
 149 230 l 2
 150 229 150 228 150 227 c 2
 129 -65 l 2
 129 -66 129 -67 128 -68 c 2
 31 -161 l 2
 29 -163 26 -163 25 -161 c 0
 25 -160 l 1
 -5 -110 l 2
 -5 -109 -6 -108 -6 -107 c 2
 19 231 l 2
 19 232 20 233 20 233 c 2
 37 263 l 2
 38 264 39 264 40 264 c 2
43 257 m 1
 102 260 l 1
 142 225 l 1
 121 -63 l 1
 29 -152 l 1
 2 -107 l 1
 27 230 l 1
 43 257 l 1
41 260 m 1
 23 231 l 1
 -2 -108 l 1
 28 -158 l 1
 125 -65 l 1
 146 227 l 1
 104 265 l 1
 41 260 l 1
414 -85 m 2
 457 -194 l 2
 458 -196 457 -199 455 -200 c 0
 453 -200 l 2xa120
 87 -198 l 2x6120
 86 -198 85 -197 85 -197 c 2
 51 -176 l 2
 49 -175 49 -172 50 -170 c 0
 50 -170 l 2
 145 -83 l 2
 146 -82 147 -82 148 -82 c 2
 410 -82 l 2
 412 -82 413 -84 414 -85 c 2
407 -90 m 1
 447 -192 l 1
 88 -190 l 1
 59 -172 l 1
 150 -90 l 1
 407 -90 l 1
410 -86 m 1
 148 -86 l 1
 53 -173 l 1
 87 -194 l 1
 453 -196 l 1xa120
 410 -86 l 1
557 254 m 1
 531 -116 l 1
 482 -173 l 1
 426 -59 l 1
 447 223 l 1
 511 258 l 1
 557 254 l 1
441 228 m 2
 508 266 l 2
 509 266 510 266 511 266 c 2
 557 262 l 1
 557 262 580 235 573 231 c 2
 539 -118 l 2
 539 -119 538 -119 538 -120 c 2
 484 -182 l 2
 482 -184 480 -185 478 -183 c 0
 477 -182 l 2
 418 -62 l 2
 418 -61 418 -61 418 -60 c 2
 439 225 l 2
 439 226 440 227 441 228 c 2
443 225 m 1
 422 -60 l 1
 481 -180 l 1
 535 -118 l 1
 569 231 l 1
 557 258 l 1
 510 262 l 1
 443 225 l 1
EndSplineSet
Validated: 37
EndChar

StartChar: nine
Encoding: 57 57 10
Width: 1000
VWidth: 0
Flags: HW
HStem: -200 4<46 412> -198 4<46 412> -86 4<107 368> 235 4<130 380> 237 4<132 380> 322 4<19 64> 324 4<19 63 460 518> 359 4<144 390> 674 4<169 427> 676 4<172 427> 682 102<169 424> 794 4<120 472> 796 4<120 472>
LayerCount: 2
Fore
SplineSet
26 725 m 2x2520
 69 772 l 2
 71 774 74 773 75 772 c 2
 150 669 l 2
 151 668 151 667 151 666 c 2
 126 368 l 2
 126 367 125 366 124 365 c 2
 66 323 l 2
 65 322 65 322 64 322 c 2
 19 324 l 2x2320
 18 324 17 325 16 326 c 2
 -5 354 l 2
 -6 355 -6 356 -6 357 c 2
 24 722 l 2
 24 723 25 724 26 725 c 2x2520
32 720 m 1
 72 763 l 1
 143 665 l 1
 118 370 l 1
 63 330 l 1
 21 332 l 1
 2 358 l 1
 32 720 l 1
28 722 m 1
 -2 357 l 1
 19 328 l 1
 64 326 l 1x2520
 122 368 l 1
 147 666 l 1
 72 770 l 1
 28 722 l 1
506 785 m 1
 565 708 l 2
 566 707 566 706 566 705 c 2
 545 353 l 2
 545 352 545 351 544 350 c 2
 521 328 l 2
 520 327 519 326 518 326 c 2
 460 325 l 2
 459 325 458 325 457 326 c 2
 409 371 l 2
 408 372 408 373 408 374 c 2
 428 615 l 2
 428 616 l 2
 499 784 l 2
 500 786 503 787 505 786 c 0
 506 786 506 785 506 785 c 1
504 775 m 1
 558 704 l 1
 537 355 l 1
 517 334 l 1
 461 333 l 1
 416 376 l 1
 436 613 l 1
 504 775 l 1
503 783 m 1
 432 614 l 1
 412 374 l 1
 460 329 l 1
 518 330 l 1
 541 353 l 1
 562 706 l 1
 503 783 l 1
100 784 m 1
 466 790 l 1
 424 684 l 1
 172 682 l 1
 100 784 l 1
120 800 m 2x2128
 472 798 l 2x2170
 474 798 476 796 476 794 c 0
 475 792 l 2
 431 679 l 2
 430 677 429 676 427 676 c 2
 170 674 l 2x21a8
 169 674 167 675 166 676 c 2
 93 779 l 2
 92 781 92 784 94 785 c 2
 94 785 116 805 120 800 c 2x2128
96 782 m 1
 169 678 l 1
 427 680 l 1x2170
 472 794 l 1
 120 796 l 1x21a8
 96 782 l 1
144 363 m 2
 390 362 l 2
 391 362 391 362 392 361 c 2
 459 303 l 2
 461 301 460 298 459 297 c 2
 383 238 l 2
 382 237 381 237 380 237 c 2x2920
 130 235 l 2x3120
 129 235 128 235 127 236 c 2
 62 298 l 2
 60 300 62 303 63 304 c 2
 142 362 l 2
 143 363 143 363 144 363 c 2
145 355 m 1
 388 354 l 1
 450 300 l 1
 379 245 l 1
 132 243 l 1
 71 301 l 1
 145 355 l 1
144 359 m 1
 65 301 l 1
 130 239 l 1
 380 241 l 1x2920
 456 300 l 1
 390 358 l 1
 144 359 l 1
372 -85 m 2
 416 -194 l 2
 417 -196 415 -199 413 -200 c 0
 412 -200 l 2xa120
 46 -198 l 2x6120
 45 -198 44 -197 44 -197 c 2
 9 -176 l 2
 7 -175 7 -172 8 -170 c 0
 9 -170 l 2
 104 -83 l 2
 105 -82 106 -82 107 -82 c 2
 368 -82 l 2
 370 -82 371 -84 372 -85 c 2
366 -90 m 1
 406 -192 l 1
 47 -190 l 1
 18 -172 l 1
 108 -90 l 1
 366 -90 l 1
368 -86 m 1
 107 -86 l 1
 11 -173 l 1
 46 -194 l 1
 412 -196 l 1xa120
 368 -86 l 1
515 254 m 1
 489 -116 l 1
 440 -173 l 1
 385 -59 l 1
 406 223 l 1
 470 258 l 1
 515 254 l 1
400 228 m 2
 467 266 l 2
 468 266 468 266 469 266 c 2
 516 262 l 1
 516 262 538 235 531 231 c 2
 497 -118 l 2
 497 -119 496 -119 496 -120 c 2
 442 -182 l 2
 440 -184 438 -185 436 -183 c 0
 436 -182 l 2
 377 -62 l 2
 377 -61 376 -61 376 -60 c 2
 398 225 l 2
 398 226 399 227 400 228 c 2
402 225 m 1
 380 -60 l 1
 439 -180 l 1
 493 -118 l 1
 527 231 l 1
 515 258 l 1
 469 262 l 1
 402 225 l 1
EndSplineSet
Validated: 33
EndChar

StartChar: colon
Encoding: 58 58 11
Width: 1000
VWidth: 0
Flags: HW
HStem: -200 231<5 227> 569 231<27 250>
VStem: -11 283
LayerCount: 2
Fore
SplineSet
5 31 m 1
 249 29 l 1
 227 -199 l 1
 -11 -200 l 1
 5 31 l 1
27 800 m 1
 272 799 l 1
 250 571 l 1
 11 569 l 1
 27 800 l 1
EndSplineSet
Validated: 1
EndChar

StartChar: less
Encoding: 60 60 12
Width: 1000
VWidth: 0
Flags: HW
HStem: -200 21G<78 148> -200 21G<78 148> 780 20G<78 148> 780 20G<78 148>
VStem: 78 70<-200 -176 776 800>
LayerCount: 2
Fore
SplineSet
54 385 m 1x18
 -9 385 l 1
 -8 509 l 1
 78 800 l 1
 148 800 l 1
 148 661 l 1
 54 385 l 1x18
54 215 m 1
 148 -61 l 1
 148 -200 l 1x48
 78 -200 l 1
 -8 91 l 1
 -9 215 l 1
 54 215 l 1
EndSplineSet
Validated: 1
EndChar

StartChar: greater
Encoding: 62 62 13
Width: 1000
VWidth: 0
Flags: HW
HStem: -200 21G<-8 62> -200 21G<-8 62> 780 20G<-8 62> 780 20G<-8 62>
VStem: -9 70<-200 -176 776 800>
LayerCount: 2
Fore
SplineSet
86 384 m 1x18
 -8 661 l 1
 -9 800 l 1
 61 800 l 1
 149 509 l 1
 149 384 l 1
 86 384 l 1x18
86 216 m 1
 149 216 l 1
 149 91 l 1
 61 -200 l 1
 -9 -200 l 1x48
 -8 -61 l 1
 86 216 l 1
EndSplineSet
Validated: 1
EndChar

StartChar: question
Encoding: 63 63 14
Width: 1000
VWidth: 0
Flags: HW
HStem: -200 21G<284 314> -200 21G<284 314> 218 89<336 457> 671 128<136 191 405 461>
VStem: -7 134<331 663> 267 61<-157 195> 469 134<331 663>
LayerCount: 2
Fore
SplineSet
127 331 m 1x3e
 59 267 l 1
 -7 267 l 1
 -7 724 l 1
 22 757 l 1
 127 663 l 1
 127 331 l 1x3e
32 767 m 1
 74 799 l 1
 277 799 l 1
 278 744 l 1
 191 671 l 1
 136 671 l 1
 32 767 l 1
469 331 m 1
 469 663 l 1
 574 757 l 1
 603 725 l 1
 603 268 l 1
 537 268 l 1
 469 331 l 1
564 768 m 1
 461 672 l 1
 405 672 l 1
 319 744 l 1
 319 800 l 1
 522 800 l 1
 564 768 l 1
457 307 m 1
 508 254 l 1
 470 218 l 1
 336 218 l 1
 305 258 l 1
 333 307 l 1
 457 307 l 1
268 195 m 1
 298 236 l 1
 328 195 l 1
 328 -157 l 1
 300 -200 l 1xbe
 267 -158 l 1
 268 195 l 1
EndSplineSet
Validated: 1
EndChar

StartChar: A
Encoding: 65 65 15
Width: 1000
VWidth: 0
Flags: HW
HStem: -199 21G<4 44 534 574> -199 21G<4 44 534 574> 236 86<135 252 325 443> 675 124<131 185 392 446>
VStem: -7 129<-108 213 346 667> 455 129<-109 212 346 668>
LayerCount: 2
Fore
SplineSet
123 346 m 1x3c
 57 284 l 1
 -7 284 l 1
 -7 727 l 1
 21 758 l 1
 122 667 l 1
 123 346 l 1x3c
31 768 m 1
 72 799 l 1
 269 799 l 1
 269 745 l 1
 185 675 l 1
 131 675 l 1
 31 768 l 1
135 322 m 1
 255 322 l 1
 282 274 l 1
 252 236 l 1
 122 236 l 1
 86 271 l 1
 135 322 l 1
454 346 m 1
 455 668 l 1
 556 759 l 1
 584 727 l 1
 584 285 l 1
 520 285 l 1
 454 346 l 1
546 769 m 1
 446 676 l 1
 392 676 l 1
 309 746 l 1
 309 800 l 1
 506 800 l 1
 546 769 l 1
443 322 m 1
 492 272 l 1
 455 236 l 1
 325 236 l 1
 295 275 l 1
 322 322 l 1
 443 322 l 1
123 213 m 1
 122 -108 l 1
 21 -199 l 1xbc
 -7 -168 l 1
 -7 275 l 1
 57 274 l 1
 123 213 l 1
454 212 m 1
 520 274 l 1
 584 274 l 1
 584 -169 l 1
 556 -200 l 1
 455 -109 l 1
 454 212 l 1
EndSplineSet
Validated: 1
EndChar

StartChar: B
Encoding: 66 66 16
Width: 1000
VWidth: 0
Flags: HW
HStem: -199 119<90 141 340 392> 259 83<276 389> 680 119<90 141 340 392>
VStem: 212 57<-90 237 363 690> 400 124<-73 236 364 673>
LayerCount: 2
Fore
SplineSet
-6 769 m 1
 32 799 l 1
 222 799 l 1
 222 748 l 1
 141 680 l 1
 90 680 l 1
 -6 769 l 1
400 364 m 1
 400 673 l 1
 497 760 l 1
 524 730 l 1
 524 305 l 1
 463 305 l 1
 400 364 l 1
488 770 m 1
 392 681 l 1
 340 681 l 1
 260 748 l 1
 260 800 l 1
 449 800 l 1
 488 770 l 1
389 341 m 1
 436 293 l 1
 401 259 l 1
 276 259 l 1
 247 296 l 1
 273 342 l 1
 389 341 l 1
-6 -169 m 1
 90 -80 l 1
 141 -80 l 1
 222 -148 l 1
 222 -199 l 1
 32 -199 l 1
 -6 -169 l 1
400 236 m 1
 463 295 l 1
 524 295 l 1
 524 -130 l 1
 497 -160 l 1
 400 -73 l 1
 400 236 l 1
488 -170 m 1
 449 -200 l 1
 260 -200 l 1
 260 -148 l 1
 340 -81 l 1
 392 -81 l 1
 488 -170 l 1
213 363 m 1
 212 691 l 1
 243 730 l 1
 269 690 l 1
 269 363 l 1
 241 324 l 1
 213 363 l 1
212 237 m 1
 241 275 l 1
 269 237 l 1
 269 -90 l 1
 243 -130 l 1
 212 -91 l 1
 212 237 l 1
EndSplineSet
Validated: 1
EndChar

StartChar: C
Encoding: 67 67 17
Width: 1000
VWidth: 0
Flags: HW
HStem: -199 119<126 178 377 428> 680 119<126 178 377 428>
VStem: -6 124<-72 236 364 672>
LayerCount: 2
Fore
SplineSet
118 364 m 1
 55 305 l 1
 -6 304 l 1
 -6 730 l 1
 21 760 l 1
 118 672 l 1
 118 364 l 1
30 769 m 1
 69 799 l 1
 258 799 l 1
 258 748 l 1
 178 680 l 1
 126 680 l 1
 30 769 l 1
524 770 m 1
 428 681 l 1
 377 681 l 1
 296 748 l 1
 296 800 l 1
 486 800 l 1
 524 770 l 1
118 236 m 1
 118 -72 l 1
 21 -160 l 1
 -6 -130 l 1
 -6 296 l 1
 55 295 l 1
 118 236 l 1
30 -169 m 1
 126 -80 l 1
 178 -80 l 1
 258 -148 l 1
 258 -199 l 1
 69 -199 l 1
 30 -169 l 1
524 -170 m 1
 486 -200 l 1
 296 -200 l 1
 296 -148 l 1
 377 -81 l 1
 428 -81 l 1
 524 -170 l 1
EndSplineSet
Validated: 1
EndChar

StartChar: D
Encoding: 68 68 18
Width: 1000
VWidth: 0
Flags: HW
HStem: -199 119<90 141 340 392> 680 119<90 141 340 392>
VStem: 212 57<-90 237 363 690> 400 124<-73 236 364 673>
LayerCount: 2
Fore
SplineSet
-6 769 m 1
 32 799 l 1
 222 799 l 1
 222 748 l 1
 141 680 l 1
 90 680 l 1
 -6 769 l 1
400 364 m 1
 400 673 l 1
 497 760 l 1
 524 730 l 1
 524 305 l 1
 463 305 l 1
 400 364 l 1
488 770 m 1
 392 681 l 1
 340 681 l 1
 260 748 l 1
 260 800 l 1
 449 800 l 1
 488 770 l 1
-6 -169 m 1
 90 -80 l 1
 141 -80 l 1
 222 -148 l 1
 222 -199 l 1
 32 -199 l 1
 -6 -169 l 1
400 236 m 1
 463 295 l 1
 524 295 l 1
 524 -130 l 1
 497 -160 l 1
 400 -73 l 1
 400 236 l 1
488 -170 m 1
 449 -200 l 1
 260 -200 l 1
 260 -148 l 1
 340 -81 l 1
 392 -81 l 1
 488 -170 l 1
213 363 m 1
 212 691 l 1
 243 730 l 1
 269 690 l 1
 269 363 l 1
 241 324 l 1
 213 363 l 1
212 237 m 1
 241 275 l 1
 269 237 l 1
 269 -90 l 1
 243 -130 l 1
 212 -91 l 1
 212 237 l 1
EndSplineSet
Validated: 1
EndChar

StartChar: E
Encoding: 69 69 19
Width: 1000
VWidth: 0
Flags: HW
HStem: -199 119<126 178 377 428> 258 83<129 242 313 425> 680 119<126 178 377 428>
VStem: -6 124<-72 236 364 672>
LayerCount: 2
Fore
SplineSet
118 364 m 1
 55 305 l 1
 -6 304 l 1
 -6 730 l 1
 21 760 l 1
 118 672 l 1
 118 364 l 1
30 769 m 1
 69 799 l 1
 258 799 l 1
 258 748 l 1
 178 680 l 1
 126 680 l 1
 30 769 l 1
129 341 m 1
 245 341 l 1
 271 295 l 1
 242 258 l 1
 117 258 l 1
 82 292 l 1
 129 341 l 1
524 770 m 1
 428 681 l 1
 377 681 l 1
 296 748 l 1
 296 800 l 1
 486 800 l 1
 524 770 l 1
425 341 m 1
 472 293 l 1
 437 259 l 1
 313 259 l 1
 284 296 l 1
 309 341 l 1
 425 341 l 1
118 236 m 1
 118 -72 l 1
 21 -160 l 1
 -6 -130 l 1
 -6 296 l 1
 55 295 l 1
 118 236 l 1
30 -169 m 1
 126 -80 l 1
 178 -80 l 1
 258 -148 l 1
 258 -199 l 1
 69 -199 l 1
 30 -169 l 1
524 -170 m 1
 486 -200 l 1
 296 -200 l 1
 296 -148 l 1
 377 -81 l 1
 428 -81 l 1
 524 -170 l 1
EndSplineSet
Validated: 1
EndChar

StartChar: F
Encoding: 70 70 20
Width: 1000
VWidth: 0
Flags: HW
HStem: -200 21G<4 44> -200 21G<4 44> 235 86<135 252> 675 124<131 185 392 446>
VStem: -7 129<-109 213 345 667>
LayerCount: 2
Fore
SplineSet
123 345 m 1x38
 58 284 l 1
 -7 283 l 1
 -7 727 l 1
 21 758 l 1
 122 667 l 1
 123 345 l 1x38
31 768 m 1
 72 799 l 1
 269 799 l 1
 269 745 l 1
 185 675 l 1
 131 675 l 1
 31 768 l 1
135 321 m 1
 255 321 l 1
 282 274 l 1
 252 235 l 1
 122 235 l 1
 86 270 l 1
 135 321 l 1
546 769 m 1
 446 676 l 1
 392 676 l 1
 309 746 l 1
 309 800 l 1
 506 800 l 1
 546 769 l 1
123 213 m 1
 122 -109 l 1
 21 -200 l 1xb8
 -7 -169 l 1
 -7 274 l 1
 58 274 l 1
 123 213 l 1
EndSplineSet
Validated: 1
EndChar

StartChar: G
Encoding: 71 71 21
Width: 1000
VWidth: 0
Flags: HW
HStem: -199 119<126 178 377 428> 259 83<313 425> 680 119<126 178 377 428>
VStem: -6 124<-72 236 364 672> 436 124<-73 236>
LayerCount: 2
Fore
SplineSet
118 364 m 1
 55 305 l 1
 -6 304 l 1
 -6 730 l 1
 21 760 l 1
 118 672 l 1
 118 364 l 1
30 769 m 1
 69 799 l 1
 258 799 l 1
 258 748 l 1
 178 680 l 1
 126 680 l 1
 30 769 l 1
524 770 m 1
 428 681 l 1
 377 681 l 1
 296 748 l 1
 296 800 l 1
 486 800 l 1
 524 770 l 1
425 341 m 1
 472 293 l 1
 437 259 l 1
 313 259 l 1
 284 296 l 1
 309 342 l 1
 425 341 l 1
118 236 m 1
 118 -72 l 1
 21 -160 l 1
 -6 -130 l 1
 -6 296 l 1
 55 295 l 1
 118 236 l 1
30 -169 m 1
 126 -80 l 1
 178 -80 l 1
 258 -148 l 1
 258 -199 l 1
 69 -199 l 1
 30 -169 l 1
436 236 m 1
 499 295 l 1
 561 295 l 1
 560 -130 l 1
 534 -160 l 1
 436 -73 l 1
 436 236 l 1
524 -170 m 1
 486 -200 l 1
 296 -200 l 1
 296 -148 l 1
 377 -81 l 1
 428 -81 l 1
 524 -170 l 1
EndSplineSet
Validated: 1
EndChar

StartChar: H
Encoding: 72 72 22
Width: 1000
VWidth: 0
Flags: HW
HStem: -199 21G<4 45 558 598> -199 21G<4 45 558 598> 254 90<140 263 339 462> 779 20G<4 45 558 598> 779 20G<4 45 558 598>
VStem: -7 135<-104 231 369 704> 474 135<-105 230 370 705>
LayerCount: 2
Fore
SplineSet
128 369 m 1x36
 60 305 l 1
 -7 305 l 1
 -7 767 l 1
 22 799 l 1
 128 704 l 1
 128 369 l 1x36
140 344 m 1
 266 344 l 1
 294 295 l 1
 263 254 l 1
 127 254 l 1
 89 291 l 1
 140 344 l 1
474 370 m 1
 474 705 l 1
 580 800 l 1
 609 767 l 1
 609 305 l 1
 542 306 l 1
 474 370 l 1
462 345 m 1
 513 292 l 1
 475 255 l 1
 339 255 l 1
 308 295 l 1
 336 345 l 1
 462 345 l 1
128 231 m 1
 128 -104 l 1
 22 -199 l 1xa6
 -7 -167 l 1
 -7 295 l 1
 60 295 l 1
 128 231 l 1
474 230 m 1
 542 294 l 1
 609 295 l 1
 609 -167 l 1
 580 -200 l 1
 474 -105 l 1
 474 230 l 1
EndSplineSet
Validated: 1
EndChar

StartChar: I
Encoding: 73 73 23
Width: 1000
VWidth: 0
Flags: HW
HStem: -199 119<90 141 340 392> 680 119<90 141 340 392>
VStem: 212 57<-90 237 363 690>
LayerCount: 2
Fore
SplineSet
-6 769 m 1
 32 799 l 1
 222 799 l 1
 222 748 l 1
 141 680 l 1
 90 680 l 1
 -6 769 l 1
488 770 m 1
 392 681 l 1
 340 681 l 1
 260 748 l 1
 260 800 l 1
 449 800 l 1
 488 770 l 1
-6 -169 m 1
 90 -80 l 1
 141 -80 l 1
 222 -148 l 1
 222 -199 l 1
 32 -199 l 1
 -6 -169 l 1
488 -170 m 1
 449 -200 l 1
 260 -200 l 1
 260 -148 l 1
 340 -81 l 1
 392 -81 l 1
 488 -170 l 1
213 363 m 1
 212 691 l 1
 243 730 l 1
 269 690 l 1
 269 363 l 1
 241 324 l 1
 213 363 l 1
212 237 m 1
 241 275 l 1
 269 237 l 1
 269 -90 l 1
 243 -130 l 1
 212 -91 l 1
 212 237 l 1
EndSplineSet
Validated: 1
EndChar

StartChar: J
Encoding: 74 74 24
Width: 1000
VWidth: 0
Flags: HW
HStem: -199 124<131 185 392 446> 780 20G<534 574> 780 20G<534 574>
VStem: -7 129<-67 254> 455 129<-68 254 388 709>
LayerCount: 2
Fore
SplineSet
454 388 m 1xd8
 455 709 l 1
 556 800 l 1
 584 769 l 1
 584 326 l 1
 520 326 l 1
 454 388 l 1xd8
123 254 m 1
 122 -67 l 1
 21 -158 l 1
 -7 -127 l 1
 -7 316 l 1
 57 316 l 1
 123 254 l 1
31 -168 m 1
 131 -75 l 1
 185 -75 l 1
 269 -145 l 1
 269 -199 l 1
 72 -199 l 1
 31 -168 l 1
454 254 m 1
 520 315 l 1
 584 315 l 1
 584 -127 l 1
 556 -159 l 1
 455 -68 l 1
 454 254 l 1
546 -169 m 1
 506 -200 l 1
 309 -200 l 1
 309 -146 l 1
 392 -76 l 1
 446 -76 l 1
 546 -169 l 1
EndSplineSet
Validated: 1
EndChar

StartChar: K
Encoding: 75 75 25
Width: 1000
VWidth: 0
Flags: HW
HStem: -200 21G<4 45> -200 21G<4 45> 254 90<141 263> 780 20G<4 45> 780 20G<4 45>
VStem: -7 135<-105 231 369 705> 410 57<-105 -82 682 705>
LayerCount: 2
Fore
SplineSet
128 369 m 1x36
 60 305 l 1
 -7 305 l 1
 -7 767 l 1
 22 800 l 1
 128 705 l 1
 128 369 l 1x36
141 344 m 1
 266 344 l 1
 295 295 l 1
 263 254 l 1
 128 254 l 1
 89 291 l 1
 141 344 l 1
391 369 m 1
 340 369 l 1
 340 470 l 1
 410 705 l 1
 467 705 l 1
 466 593 l 1
 391 369 l 1
128 231 m 1
 128 -105 l 1
 22 -200 l 1xa6
 -7 -167 l 1
 -7 295 l 1
 60 295 l 1
 128 231 l 1
391 231 m 1
 466 7 l 1
 467 -105 l 1
 410 -105 l 1
 340 130 l 1
 340 231 l 1
 391 231 l 1
EndSplineSet
Validated: 1
EndChar

StartChar: L
Encoding: 76 76 26
Width: 1000
VWidth: 0
Flags: HW
HStem: -199 124<131 185 392 446> 780 20G<4 44> 780 20G<4 44>
VStem: -7 129<-67 255 387 709>
LayerCount: 2
Fore
SplineSet
123 387 m 1xd0
 58 326 l 1
 -7 326 l 1
 -7 769 l 1
 21 800 l 1
 122 709 l 1
 123 387 l 1xd0
123 255 m 1
 122 -67 l 1
 21 -158 l 1
 -7 -127 l 1
 -7 317 l 1
 58 316 l 1
 123 255 l 1
31 -168 m 1
 131 -75 l 1
 185 -75 l 1
 269 -145 l 1
 269 -199 l 1
 72 -199 l 1
 31 -168 l 1
546 -169 m 1
 506 -200 l 1
 309 -200 l 1
 309 -146 l 1
 392 -76 l 1
 446 -76 l 1
 546 -169 l 1
EndSplineSet
Validated: 1
EndChar

StartChar: M
Encoding: 77 77 27
Width: 1000
VWidth: 0
Flags: HW
HStem: -199 21G<4 45 558 598> -199 21G<4 45 558 598> 779 20G<4 45 558 598> 779 20G<4 45 558 598>
VStem: -7 135<-104 231 369 704> 136 57<680 704> 409 57<681 704> 474 135<-105 230 370 705>
LayerCount: 2
Fore
SplineSet
128 369 m 1x2f
 60 305 l 1
 -7 305 l 1
 -7 767 l 1
 22 799 l 1
 128 704 l 1
 128 369 l 1x2f
212 368 m 1
 137 592 l 1
 136 704 l 1
 193 704 l 1
 263 469 l 1
 263 368 l 1
 212 368 l 1
474 370 m 1
 474 705 l 1
 580 800 l 1
 609 767 l 1
 609 305 l 1
 542 306 l 1
 474 370 l 1
390 369 m 1
 339 369 l 1
 339 469 l 1
 409 704 l 1
 466 705 l 1
 465 592 l 1
 390 369 l 1
128 231 m 1
 128 -104 l 1
 22 -199 l 1x8f
 -7 -167 l 1
 -7 295 l 1
 60 295 l 1
 128 231 l 1
474 230 m 1
 542 294 l 1
 609 295 l 1
 609 -167 l 1
 580 -200 l 1
 474 -105 l 1
 474 230 l 1
EndSplineSet
Validated: 1
EndChar

StartChar: N
Encoding: 78 78 28
Width: 1000
VWidth: 0
Flags: HW
HStem: -199 21G<4 45 558 598> -199 21G<4 45 558 598> 779 20G<4 45 558 598> 779 20G<4 45 558 598>
VStem: -7 135<-104 231 369 704> 136 57<680 704> 409 57<-104 -81> 474 135<-105 230 370 705>
LayerCount: 2
Fore
SplineSet
128 369 m 1x2f
 60 305 l 1
 -7 305 l 1
 -7 767 l 1
 22 799 l 1
 128 704 l 1
 128 369 l 1x2f
212 368 m 1
 137 592 l 1
 136 704 l 1
 193 704 l 1
 263 469 l 1
 263 368 l 1
 212 368 l 1
474 370 m 1
 474 705 l 1
 580 800 l 1
 609 767 l 1
 609 305 l 1
 542 306 l 1
 474 370 l 1
128 231 m 1
 128 -104 l 1
 22 -199 l 1x8f
 -7 -167 l 1
 -7 295 l 1
 60 295 l 1
 128 231 l 1
474 230 m 1
 542 294 l 1
 609 295 l 1
 609 -167 l 1
 580 -200 l 1
 474 -105 l 1
 474 230 l 1
390 231 m 1
 465 8 l 1
 466 -105 l 1
 409 -104 l 1
 339 131 l 1
 339 231 l 1
 390 231 l 1
EndSplineSet
Validated: 1
EndChar

StartChar: O
Encoding: 79 79 29
Width: 1000
VWidth: 0
Flags: HW
HStem: -199 119<126 178 377 428> 680 119<126 178 377 428>
VStem: -6 124<-72 236 364 672> 436 124<-73 236 364 673>
LayerCount: 2
Fore
SplineSet
118 364 m 1
 55 305 l 1
 -6 304 l 1
 -6 730 l 1
 21 760 l 1
 118 672 l 1
 118 364 l 1
30 769 m 1
 69 799 l 1
 258 799 l 1
 258 748 l 1
 178 680 l 1
 126 680 l 1
 30 769 l 1
436 364 m 1
 436 673 l 1
 534 760 l 1
 560 730 l 1
 561 305 l 1
 499 305 l 1
 436 364 l 1
524 770 m 1
 428 681 l 1
 377 681 l 1
 296 748 l 1
 296 800 l 1
 486 800 l 1
 524 770 l 1
118 236 m 1
 118 -72 l 1
 21 -160 l 1
 -6 -130 l 1
 -6 296 l 1
 55 295 l 1
 118 236 l 1
30 -169 m 1
 126 -80 l 1
 178 -80 l 1
 258 -148 l 1
 258 -199 l 1
 69 -199 l 1
 30 -169 l 1
436 236 m 1
 499 295 l 1
 561 295 l 1
 560 -130 l 1
 534 -160 l 1
 436 -73 l 1
 436 236 l 1
524 -170 m 1
 486 -200 l 1
 296 -200 l 1
 296 -148 l 1
 377 -81 l 1
 428 -81 l 1
 524 -170 l 1
EndSplineSet
Validated: 1
EndChar

StartChar: P
Encoding: 80 80 30
Width: 1000
VWidth: 0
Flags: HW
HStem: -200 21G<4 44> -200 21G<4 44> 235 86<135 252 326 443> 675 124<131 185 392 446>
VStem: -7 129<-109 213 345 667> 455 130<346 667>
LayerCount: 2
Fore
SplineSet
123 345 m 1x3c
 58 284 l 1
 -7 283 l 1
 -7 727 l 1
 21 758 l 1
 122 667 l 1
 123 345 l 1x3c
31 768 m 1
 72 799 l 1
 269 799 l 1
 269 745 l 1
 185 675 l 1
 131 675 l 1
 31 768 l 1
135 321 m 1
 255 321 l 1
 282 274 l 1
 252 235 l 1
 122 235 l 1
 86 270 l 1
 135 321 l 1
455 346 m 1
 455 667 l 1
 556 759 l 1
 584 727 l 1
 585 284 l 1
 520 285 l 1
 455 346 l 1
546 769 m 1
 446 676 l 1
 392 676 l 1
 309 746 l 1
 309 800 l 1
 506 800 l 1
 546 769 l 1
443 322 m 1
 492 271 l 1
 456 236 l 1
 326 236 l 1
 295 275 l 1
 323 322 l 1
 443 322 l 1
123 213 m 1
 122 -109 l 1
 21 -200 l 1xbc
 -7 -169 l 1
 -7 274 l 1
 58 274 l 1
 123 213 l 1
EndSplineSet
Validated: 1
EndChar

StartChar: Q
Encoding: 81 81 31
Width: 1000
VWidth: 0
Flags: HW
HStem: -199 119<126 178 377 428> 680 119<126 178 377 428>
VStem: -6 124<-72 236 364 672> 377 52<-72 -49> 436 124<-73 236 364 673>
LayerCount: 2
Fore
SplineSet
118 364 m 1
 55 305 l 1
 -6 304 l 1
 -6 730 l 1
 21 760 l 1
 118 672 l 1
 118 364 l 1
30 769 m 1
 69 799 l 1
 258 799 l 1
 258 748 l 1
 178 680 l 1
 126 680 l 1
 30 769 l 1
436 364 m 1
 436 673 l 1
 534 760 l 1
 560 730 l 1
 561 305 l 1
 499 305 l 1
 436 364 l 1
524 770 m 1
 428 681 l 1
 377 681 l 1
 296 748 l 1
 296 800 l 1
 486 800 l 1
 524 770 l 1
118 236 m 1
 118 -72 l 1
 21 -160 l 1
 -6 -130 l 1
 -6 296 l 1
 55 295 l 1
 118 236 l 1
30 -169 m 1
 126 -80 l 1
 178 -80 l 1
 258 -148 l 1
 258 -199 l 1
 69 -199 l 1
 30 -169 l 1
436 236 m 1
 499 295 l 1
 561 295 l 1
 560 -130 l 1
 534 -160 l 1
 436 -73 l 1
 436 236 l 1
524 -170 m 1
 486 -200 l 1
 296 -200 l 1
 296 -148 l 1
 377 -81 l 1
 428 -81 l 1
 524 -170 l 1
359 237 m 1
 428 31 l 1
 429 -72 l 1
 377 -72 l 1
 312 144 l 1
 312 237 l 1
 359 237 l 1
EndSplineSet
Validated: 1
EndChar

StartChar: R
Encoding: 82 82 32
Width: 1000
VWidth: 0
Flags: HW
HStem: -200 21G<4 44> -200 21G<4 44> 235 86<135 252 326 443> 675 124<131 185 392 446>
VStem: -7 129<-109 213 345 667> 392 55<-109 -86> 455 130<346 667>
LayerCount: 2
Fore
SplineSet
123 345 m 1x3e
 58 284 l 1
 -7 283 l 1
 -7 727 l 1
 21 758 l 1
 122 667 l 1
 123 345 l 1x3e
31 768 m 1
 72 799 l 1
 269 799 l 1
 269 745 l 1
 185 675 l 1
 131 675 l 1
 31 768 l 1
135 321 m 1
 255 321 l 1
 282 274 l 1
 252 235 l 1
 122 235 l 1
 86 270 l 1
 135 321 l 1
455 346 m 1
 455 667 l 1
 556 759 l 1
 584 727 l 1
 585 284 l 1
 520 285 l 1
 455 346 l 1
546 769 m 1
 446 676 l 1
 392 676 l 1
 309 746 l 1
 309 800 l 1
 506 800 l 1
 546 769 l 1
443 322 m 1
 492 271 l 1
 456 236 l 1
 326 236 l 1
 295 275 l 1
 323 322 l 1
 443 322 l 1
123 213 m 1
 122 -109 l 1
 21 -200 l 1xbe
 -7 -169 l 1
 -7 274 l 1
 58 274 l 1
 123 213 l 1
374 213 m 1
 446 -1 l 1
 447 -109 l 1
 392 -109 l 1
 325 116 l 1
 325 213 l 1
 374 213 l 1
EndSplineSet
Validated: 1
EndChar

StartChar: S
Encoding: 83 83 33
Width: 1000
VWidth: 0
Flags: HW
HStem: -199 119<126 178 377 428> 258 83<129 242 313 425> 680 119<126 178 377 428>
VStem: -6 124<364 672> 436 124<-73 236>
LayerCount: 2
Fore
SplineSet
118 364 m 1
 55 305 l 1
 -6 304 l 1
 -6 730 l 1
 21 760 l 1
 118 672 l 1
 118 364 l 1
30 769 m 1
 69 799 l 1
 258 799 l 1
 258 748 l 1
 178 680 l 1
 126 680 l 1
 30 769 l 1
129 341 m 1
 245 341 l 1
 271 295 l 1
 242 258 l 1
 117 258 l 1
 82 292 l 1
 129 341 l 1
524 770 m 1
 428 681 l 1
 377 681 l 1
 296 748 l 1
 296 800 l 1
 486 800 l 1
 524 770 l 1
425 341 m 1
 472 293 l 1
 437 259 l 1
 313 259 l 1
 284 296 l 1
 309 341 l 1
 425 341 l 1
30 -169 m 1
 126 -80 l 1
 178 -80 l 1
 258 -148 l 1
 258 -199 l 1
 69 -199 l 1
 30 -169 l 1
436 236 m 1
 499 295 l 1
 561 295 l 1
 560 -130 l 1
 534 -160 l 1
 436 -73 l 1
 436 236 l 1
524 -170 m 1
 486 -200 l 1
 296 -200 l 1
 296 -148 l 1
 377 -81 l 1
 428 -81 l 1
 524 -170 l 1
EndSplineSet
Validated: 1
EndChar

StartChar: T
Encoding: 84 84 34
Width: 1000
VWidth: 0
Flags: HW
HStem: -200 21G<245 275> -200 21G<245 275> 671 128<96 152 366 421>
VStem: 228 61<-157 195 330 682>
LayerCount: 2
Fore
SplineSet
-7 767 m 1x30
 35 799 l 1
 238 799 l 1
 238 744 l 1
 152 671 l 1
 96 671 l 1
 -7 767 l 1x30
525 768 m 1
 421 672 l 1
 366 672 l 1
 279 744 l 1
 279 800 l 1
 483 800 l 1
 525 768 l 1
229 330 m 1
 228 683 l 1
 262 725 l 1
 290 682 l 1
 289 330 l 1
 259 289 l 1
 229 330 l 1
228 195 m 1
 259 236 l 1
 289 195 l 1
 289 -157 l 1
 261 -200 l 1xb0
 228 -158 l 1
 228 195 l 1
EndSplineSet
Validated: 1
EndChar

StartChar: U
Encoding: 85 85 35
Width: 1000
VWidth: 0
Flags: HW
HStem: -199 124<131 185 392 446> 779 20G<4 44 534 574> 779 20G<4 44 534 574>
VStem: -7 129<-67 254 387 708> 454 130<-68 254 388 709>
LayerCount: 2
Fore
SplineSet
123 387 m 1xd8
 57 326 l 1
 -7 325 l 1
 -7 768 l 1
 21 799 l 1
 122 708 l 1
 123 387 l 1xd8
454 388 m 1
 455 709 l 1
 556 800 l 1
 584 769 l 1
 584 326 l 1
 520 326 l 1
 454 388 l 1
123 254 m 1
 122 -67 l 1
 21 -158 l 1
 -7 -127 l 1
 -7 316 l 1
 57 316 l 1
 123 254 l 1
31 -168 m 1
 131 -75 l 1
 185 -75 l 1
 269 -145 l 1
 269 -199 l 1
 72 -199 l 1
 31 -168 l 1
454 254 m 1
 520 315 l 1
 584 315 l 1
 584 -127 l 1
 556 -159 l 1
 455 -68 l 1
 454 254 l 1
546 -169 m 1
 506 -200 l 1
 309 -200 l 1
 309 -146 l 1
 392 -76 l 1
 446 -76 l 1
 546 -169 l 1
EndSplineSet
Validated: 1
EndChar

StartChar: V
Encoding: 86 86 36
Width: 1000
VWidth: 0
Flags: HW
HStem: -200 21G<4 45> -200 21G<4 45> 780 20G<4 45> 780 20G<4 45>
VStem: -7 135<-105 231 369 705> 136 57<-104 -81> 410 57<682 705>
LayerCount: 2
Fore
SplineSet
128 369 m 1x2e
 60 305 l 1
 -7 305 l 1
 -7 767 l 1
 22 800 l 1
 128 705 l 1
 128 369 l 1x2e
391 369 m 1
 340 369 l 1
 340 470 l 1
 410 705 l 1
 467 705 l 1
 466 593 l 1
 391 369 l 1
128 231 m 1
 128 -105 l 1
 22 -200 l 1x8e
 -7 -167 l 1
 -7 295 l 1
 60 295 l 1
 128 231 l 1
213 232 m 1
 264 232 l 1
 264 131 l 1
 193 -104 l 1
 136 -104 l 1
 137 8 l 1
 213 232 l 1
EndSplineSet
Validated: 1
EndChar

StartChar: W
Encoding: 87 87 37
Width: 1000
VWidth: 0
Flags: HW
HStem: -199 21G<4 45 558 598> -199 21G<4 45 558 598> 779 20G<4 45 558 598> 779 20G<4 45 558 598>
VStem: -7 135<-104 231 369 704> 136 57<-104 -80> 409 57<-104 -81> 474 135<-105 230 370 705>
LayerCount: 2
Fore
SplineSet
128 369 m 1x2f
 60 305 l 1
 -7 305 l 1
 -7 767 l 1
 22 799 l 1
 128 704 l 1
 128 369 l 1x2f
474 370 m 1
 474 705 l 1
 580 800 l 1
 609 767 l 1
 609 305 l 1
 542 306 l 1
 474 370 l 1
128 231 m 1
 128 -104 l 1
 22 -199 l 1x8f
 -7 -167 l 1
 -7 295 l 1
 60 295 l 1
 128 231 l 1
212 232 m 1
 263 232 l 1
 263 131 l 1
 193 -104 l 1
 136 -104 l 1
 137 8 l 1
 212 232 l 1
474 230 m 1
 542 294 l 1
 609 295 l 1
 609 -167 l 1
 580 -200 l 1
 474 -105 l 1
 474 230 l 1
390 231 m 1
 465 8 l 1
 466 -105 l 1
 409 -104 l 1
 339 131 l 1
 339 231 l 1
 390 231 l 1
EndSplineSet
Validated: 1
EndChar

StartChar: X
Encoding: 88 88 38
Width: 1000
VWidth: 0
Flags: HW
HStem: -199 21G<-8 62 329 399> -199 21G<-8 62 329 399> 779 20G<-8 62 329 399> 779 20G<-8 62 329 399>
VStem: -9 70<-199 -176 776 799> 329 70<-200 -176 776 800>
LayerCount: 2
Fore
SplineSet
85 384 m 1x1c
 -8 660 l 1
 -9 799 l 1
 62 799 l 1
 148 508 l 1
 148 384 l 1
 85 384 l 1x1c
305 385 m 1
 242 385 l 1
 242 509 l 1
 329 800 l 1
 399 800 l 1
 398 661 l 1
 305 385 l 1
85 216 m 1
 148 216 l 1
 148 92 l 1
 61 -199 l 1
 -9 -199 l 1x4c
 -8 -60 l 1
 85 216 l 1
305 215 m 1
 398 -61 l 1
 399 -200 l 1
 329 -200 l 1
 242 91 l 1
 242 215 l 1
 305 215 l 1
EndSplineSet
Validated: 1
EndChar

StartChar: Y
Encoding: 89 89 39
Width: 1000
VWidth: 0
Flags: HW
HStem: -199 124<131 185 392 446> 277 86<134 252 325 443> 779 20G<4 44 534 574> 779 20G<4 44 534 574>
VStem: -7 130<387 708> 455 129<-68 254 388 709>
LayerCount: 2
Fore
SplineSet
123 387 m 1xec
 57 326 l 1
 -7 325 l 1
 -7 768 l 1
 21 799 l 1
 123 708 l 1
 123 387 l 1xec
134 363 m 1
 255 363 l 1
 282 316 l 1
 252 277 l 1
 122 277 l 1
 86 312 l 1
 134 363 l 1
454 388 m 1
 455 709 l 1
 556 800 l 1
 584 769 l 1
 584 326 l 1
 520 326 l 1
 454 388 l 1
443 364 m 1
 492 313 l 1
 455 278 l 1
 325 278 l 1
 295 316 l 1
 322 364 l 1
 443 364 l 1
31 -168 m 1
 131 -75 l 1
 185 -75 l 1
 269 -145 l 1
 269 -199 l 1
 72 -199 l 1
 31 -168 l 1
454 254 m 1
 520 315 l 1
 584 315 l 1
 584 -127 l 1
 556 -159 l 1
 455 -68 l 1
 454 254 l 1
546 -169 m 1
 506 -200 l 1
 309 -200 l 1
 309 -146 l 1
 392 -76 l 1
 446 -76 l 1
 546 -169 l 1
EndSplineSet
Validated: 1
EndChar

StartChar: Z
Encoding: 90 90 40
Width: 1000
VWidth: 0
Flags: HW
HStem: -199 119<96 148 347 398> 680 119<96 148 347 398>
VStem: 95 52<-72 -48> 347 52<649 672>
LayerCount: 2
Fore
SplineSet
0 769 m 1
 39 799 l 1
 228 799 l 1
 228 748 l 1
 148 680 l 1
 96 680 l 1
 0 769 l 1
494 770 m 1
 398 681 l 1
 347 681 l 1
 266 748 l 1
 266 800 l 1
 455 800 l 1
 494 770 l 1
329 363 m 1
 282 363 l 1
 282 456 l 1
 347 672 l 1
 399 672 l 1
 398 569 l 1
 329 363 l 1
0 -169 m 1
 96 -80 l 1
 148 -80 l 1
 228 -148 l 1
 228 -199 l 1
 39 -199 l 1
 0 -169 l 1
165 237 m 1
 212 237 l 1
 212 145 l 1
 147 -72 l 1
 95 -72 l 1
 96 32 l 1
 165 237 l 1
494 -170 m 1
 455 -200 l 1
 266 -200 l 1
 266 -148 l 1
 347 -81 l 1
 398 -81 l 1
 494 -170 l 1
EndSplineSet
Validated: 1
EndChar

StartChar: bracketleft
Encoding: 91 91 41
Width: 1000
VWidth: 0
Flags: HW
HStem: -200 21G<78 148> -200 21G<78 148> 780 20G<78 148> 780 20G<78 148>
VStem: 78 70<-200 -176 776 800>
LayerCount: 2
Fore
SplineSet
54 385 m 1x18
 -9 385 l 1
 -8 509 l 1
 78 800 l 1
 148 800 l 1
 148 661 l 1
 54 385 l 1x18
54 215 m 1
 148 -61 l 1
 148 -200 l 1x48
 78 -200 l 1
 -8 91 l 1
 -9 215 l 1
 54 215 l 1
EndSplineSet
Validated: 1
EndChar

StartChar: bracketright
Encoding: 93 93 42
Width: 1000
VWidth: 0
Flags: HW
HStem: -200 21G<-8 62> -200 21G<-8 62> 780 20G<-8 62> 780 20G<-8 62>
VStem: -9 70<-200 -176 776 800>
LayerCount: 2
Fore
SplineSet
86 384 m 1x18
 -8 661 l 1
 -9 800 l 1
 61 800 l 1
 149 509 l 1
 149 384 l 1
 86 384 l 1x18
86 216 m 1
 149 216 l 1
 149 91 l 1
 61 -200 l 1
 -9 -200 l 1x48
 -8 -61 l 1
 86 216 l 1
EndSplineSet
Validated: 1
EndChar

StartChar: a
Encoding: 97 97 43
Width: 1000
VWidth: 0
Flags: HW
HStem: -199 21G<4 44 534 574> -199 21G<4 44 534 574> 236 86<135 252 325 443> 675 124<131 185 392 446>
VStem: -7 129<-108 213 346 667> 455 129<-109 212 346 668>
LayerCount: 2
Fore
SplineSet
123 346 m 1x3c
 57 284 l 1
 -7 284 l 1
 -7 727 l 1
 21 758 l 1
 122 667 l 1
 123 346 l 1x3c
31 768 m 1
 72 799 l 1
 269 799 l 1
 269 745 l 1
 185 675 l 1
 131 675 l 1
 31 768 l 1
135 322 m 1
 255 322 l 1
 282 274 l 1
 252 236 l 1
 122 236 l 1
 86 271 l 1
 135 322 l 1
454 346 m 1
 455 668 l 1
 556 759 l 1
 584 727 l 1
 584 285 l 1
 520 285 l 1
 454 346 l 1
546 769 m 1
 446 676 l 1
 392 676 l 1
 309 746 l 1
 309 800 l 1
 506 800 l 1
 546 769 l 1
443 322 m 1
 492 272 l 1
 455 236 l 1
 325 236 l 1
 295 275 l 1
 322 322 l 1
 443 322 l 1
123 213 m 1
 122 -108 l 1
 21 -199 l 1xbc
 -7 -168 l 1
 -7 275 l 1
 57 274 l 1
 123 213 l 1
454 212 m 1
 520 274 l 1
 584 274 l 1
 584 -169 l 1
 556 -200 l 1
 455 -109 l 1
 454 212 l 1
EndSplineSet
Validated: 1
EndChar

StartChar: b
Encoding: 98 98 44
Width: 1000
VWidth: 0
Flags: HW
HStem: -199 119<90 141 340 392> 259 83<276 389> 680 119<90 141 340 392>
VStem: 212 57<-90 237 363 690> 400 124<-73 236 364 673>
LayerCount: 2
Fore
SplineSet
-6 769 m 1
 32 799 l 1
 222 799 l 1
 222 748 l 1
 141 680 l 1
 90 680 l 1
 -6 769 l 1
400 364 m 1
 400 673 l 1
 497 760 l 1
 524 730 l 1
 524 305 l 1
 463 305 l 1
 400 364 l 1
488 770 m 1
 392 681 l 1
 340 681 l 1
 260 748 l 1
 260 800 l 1
 449 800 l 1
 488 770 l 1
389 341 m 1
 436 293 l 1
 401 259 l 1
 276 259 l 1
 247 296 l 1
 273 342 l 1
 389 341 l 1
-6 -169 m 1
 90 -80 l 1
 141 -80 l 1
 222 -148 l 1
 222 -199 l 1
 32 -199 l 1
 -6 -169 l 1
400 236 m 1
 463 295 l 1
 524 295 l 1
 524 -130 l 1
 497 -160 l 1
 400 -73 l 1
 400 236 l 1
488 -170 m 1
 449 -200 l 1
 260 -200 l 1
 260 -148 l 1
 340 -81 l 1
 392 -81 l 1
 488 -170 l 1
213 363 m 1
 212 691 l 1
 243 730 l 1
 269 690 l 1
 269 363 l 1
 241 324 l 1
 213 363 l 1
212 237 m 1
 241 275 l 1
 269 237 l 1
 269 -90 l 1
 243 -130 l 1
 212 -91 l 1
 212 237 l 1
EndSplineSet
Validated: 1
EndChar

StartChar: c
Encoding: 99 99 45
Width: 1000
VWidth: 0
Flags: HW
HStem: -199 119<126 178 377 428> 680 119<126 178 377 428>
VStem: -6 124<-72 236 364 672>
LayerCount: 2
Fore
SplineSet
118 364 m 1
 55 305 l 1
 -6 304 l 1
 -6 730 l 1
 21 760 l 1
 118 672 l 1
 118 364 l 1
30 769 m 1
 69 799 l 1
 258 799 l 1
 258 748 l 1
 178 680 l 1
 126 680 l 1
 30 769 l 1
524 770 m 1
 428 681 l 1
 377 681 l 1
 296 748 l 1
 296 800 l 1
 486 800 l 1
 524 770 l 1
118 236 m 1
 118 -72 l 1
 21 -160 l 1
 -6 -130 l 1
 -6 296 l 1
 55 295 l 1
 118 236 l 1
30 -169 m 1
 126 -80 l 1
 178 -80 l 1
 258 -148 l 1
 258 -199 l 1
 69 -199 l 1
 30 -169 l 1
524 -170 m 1
 486 -200 l 1
 296 -200 l 1
 296 -148 l 1
 377 -81 l 1
 428 -81 l 1
 524 -170 l 1
EndSplineSet
Validated: 1
EndChar

StartChar: d
Encoding: 100 100 46
Width: 1000
VWidth: 0
Flags: HW
HStem: -199 119<90 141 340 392> 680 119<90 141 340 392>
VStem: 212 57<-90 237 363 690> 400 124<-73 236 364 673>
LayerCount: 2
Fore
SplineSet
-6 769 m 1
 32 799 l 1
 222 799 l 1
 222 748 l 1
 141 680 l 1
 90 680 l 1
 -6 769 l 1
400 364 m 1
 400 673 l 1
 497 760 l 1
 524 730 l 1
 524 305 l 1
 463 305 l 1
 400 364 l 1
488 770 m 1
 392 681 l 1
 340 681 l 1
 260 748 l 1
 260 800 l 1
 449 800 l 1
 488 770 l 1
-6 -169 m 1
 90 -80 l 1
 141 -80 l 1
 222 -148 l 1
 222 -199 l 1
 32 -199 l 1
 -6 -169 l 1
400 236 m 1
 463 295 l 1
 524 295 l 1
 524 -130 l 1
 497 -160 l 1
 400 -73 l 1
 400 236 l 1
488 -170 m 1
 449 -200 l 1
 260 -200 l 1
 260 -148 l 1
 340 -81 l 1
 392 -81 l 1
 488 -170 l 1
213 363 m 1
 212 691 l 1
 243 730 l 1
 269 690 l 1
 269 363 l 1
 241 324 l 1
 213 363 l 1
212 237 m 1
 241 275 l 1
 269 237 l 1
 269 -90 l 1
 243 -130 l 1
 212 -91 l 1
 212 237 l 1
EndSplineSet
Validated: 1
EndChar

StartChar: e
Encoding: 101 101 47
Width: 1000
VWidth: 0
Flags: HW
HStem: -199 119<126 178 377 428> 258 83<129 242 313 425> 680 119<126 178 377 428>
VStem: -6 124<-72 236 364 672>
LayerCount: 2
Fore
SplineSet
118 364 m 1
 55 305 l 1
 -6 304 l 1
 -6 730 l 1
 21 760 l 1
 118 672 l 1
 118 364 l 1
30 769 m 1
 69 799 l 1
 258 799 l 1
 258 748 l 1
 178 680 l 1
 126 680 l 1
 30 769 l 1
129 341 m 1
 245 341 l 1
 271 295 l 1
 242 258 l 1
 117 258 l 1
 82 292 l 1
 129 341 l 1
524 770 m 1
 428 681 l 1
 377 681 l 1
 296 748 l 1
 296 800 l 1
 486 800 l 1
 524 770 l 1
425 341 m 1
 472 293 l 1
 437 259 l 1
 313 259 l 1
 284 296 l 1
 309 341 l 1
 425 341 l 1
118 236 m 1
 118 -72 l 1
 21 -160 l 1
 -6 -130 l 1
 -6 296 l 1
 55 295 l 1
 118 236 l 1
30 -169 m 1
 126 -80 l 1
 178 -80 l 1
 258 -148 l 1
 258 -199 l 1
 69 -199 l 1
 30 -169 l 1
524 -170 m 1
 486 -200 l 1
 296 -200 l 1
 296 -148 l 1
 377 -81 l 1
 428 -81 l 1
 524 -170 l 1
EndSplineSet
Validated: 1
EndChar

StartChar: f
Encoding: 102 102 48
Width: 1000
VWidth: 0
Flags: HW
HStem: -200 21G<4 44> -200 21G<4 44> 235 86<135 252> 675 124<131 185 392 446>
VStem: -7 129<-109 213 345 667>
LayerCount: 2
Fore
SplineSet
123 345 m 1x38
 58 284 l 1
 -7 283 l 1
 -7 727 l 1
 21 758 l 1
 122 667 l 1
 123 345 l 1x38
31 768 m 1
 72 799 l 1
 269 799 l 1
 269 745 l 1
 185 675 l 1
 131 675 l 1
 31 768 l 1
135 321 m 1
 255 321 l 1
 282 274 l 1
 252 235 l 1
 122 235 l 1
 86 270 l 1
 135 321 l 1
546 769 m 1
 446 676 l 1
 392 676 l 1
 309 746 l 1
 309 800 l 1
 506 800 l 1
 546 769 l 1
123 213 m 1
 122 -109 l 1
 21 -200 l 1xb8
 -7 -169 l 1
 -7 274 l 1
 58 274 l 1
 123 213 l 1
EndSplineSet
Validated: 1
EndChar

StartChar: g
Encoding: 103 103 49
Width: 1000
VWidth: 0
Flags: HW
HStem: -199 119<126 178 377 428> 259 83<313 425> 680 119<126 178 377 428>
VStem: -6 124<-72 236 364 672> 436 124<-73 236>
LayerCount: 2
Fore
SplineSet
118 364 m 1
 55 305 l 1
 -6 304 l 1
 -6 730 l 1
 21 760 l 1
 118 672 l 1
 118 364 l 1
30 769 m 1
 69 799 l 1
 258 799 l 1
 258 748 l 1
 178 680 l 1
 126 680 l 1
 30 769 l 1
524 770 m 1
 428 681 l 1
 377 681 l 1
 296 748 l 1
 296 800 l 1
 486 800 l 1
 524 770 l 1
425 341 m 1
 472 293 l 1
 437 259 l 1
 313 259 l 1
 284 296 l 1
 309 342 l 1
 425 341 l 1
118 236 m 1
 118 -72 l 1
 21 -160 l 1
 -6 -130 l 1
 -6 296 l 1
 55 295 l 1
 118 236 l 1
30 -169 m 1
 126 -80 l 1
 178 -80 l 1
 258 -148 l 1
 258 -199 l 1
 69 -199 l 1
 30 -169 l 1
436 236 m 1
 499 295 l 1
 561 295 l 1
 560 -130 l 1
 534 -160 l 1
 436 -73 l 1
 436 236 l 1
524 -170 m 1
 486 -200 l 1
 296 -200 l 1
 296 -148 l 1
 377 -81 l 1
 428 -81 l 1
 524 -170 l 1
EndSplineSet
Validated: 1
EndChar

StartChar: h
Encoding: 104 104 50
Width: 1000
VWidth: 0
Flags: HW
HStem: -199 21G<4 45 558 598> -199 21G<4 45 558 598> 254 90<140 263 339 462> 779 20G<4 45 558 598> 779 20G<4 45 558 598>
VStem: -7 135<-104 231 369 704> 474 135<-105 230 370 705>
LayerCount: 2
Fore
SplineSet
128 369 m 1x36
 60 305 l 1
 -7 305 l 1
 -7 767 l 1
 22 799 l 1
 128 704 l 1
 128 369 l 1x36
140 344 m 1
 266 344 l 1
 294 295 l 1
 263 254 l 1
 127 254 l 1
 89 291 l 1
 140 344 l 1
474 370 m 1
 474 705 l 1
 580 800 l 1
 609 767 l 1
 609 305 l 1
 542 306 l 1
 474 370 l 1
462 345 m 1
 513 292 l 1
 475 255 l 1
 339 255 l 1
 308 295 l 1
 336 345 l 1
 462 345 l 1
128 231 m 1
 128 -104 l 1
 22 -199 l 1xa6
 -7 -167 l 1
 -7 295 l 1
 60 295 l 1
 128 231 l 1
474 230 m 1
 542 294 l 1
 609 295 l 1
 609 -167 l 1
 580 -200 l 1
 474 -105 l 1
 474 230 l 1
EndSplineSet
Validated: 1
EndChar

StartChar: i
Encoding: 105 105 51
Width: 1000
VWidth: 0
Flags: HW
HStem: -199 119<90 141 340 392> 680 119<90 141 340 392>
VStem: 212 57<-90 237 363 690>
LayerCount: 2
Fore
SplineSet
-6 769 m 1
 32 799 l 1
 222 799 l 1
 222 748 l 1
 141 680 l 1
 90 680 l 1
 -6 769 l 1
488 770 m 1
 392 681 l 1
 340 681 l 1
 260 748 l 1
 260 800 l 1
 449 800 l 1
 488 770 l 1
-6 -169 m 1
 90 -80 l 1
 141 -80 l 1
 222 -148 l 1
 222 -199 l 1
 32 -199 l 1
 -6 -169 l 1
488 -170 m 1
 449 -200 l 1
 260 -200 l 1
 260 -148 l 1
 340 -81 l 1
 392 -81 l 1
 488 -170 l 1
213 363 m 1
 212 691 l 1
 243 730 l 1
 269 690 l 1
 269 363 l 1
 241 324 l 1
 213 363 l 1
212 237 m 1
 241 275 l 1
 269 237 l 1
 269 -90 l 1
 243 -130 l 1
 212 -91 l 1
 212 237 l 1
EndSplineSet
Validated: 1
EndChar

StartChar: j
Encoding: 106 106 52
Width: 1000
VWidth: 0
Flags: HW
HStem: -199 124<131 185 392 446> 780 20G<534 574> 780 20G<534 574>
VStem: -7 129<-67 254> 455 129<-68 254 388 709>
LayerCount: 2
Fore
SplineSet
454 388 m 1xd8
 455 709 l 1
 556 800 l 1
 584 769 l 1
 584 326 l 1
 520 326 l 1
 454 388 l 1xd8
123 254 m 1
 122 -67 l 1
 21 -158 l 1
 -7 -127 l 1
 -7 316 l 1
 57 316 l 1
 123 254 l 1
31 -168 m 1
 131 -75 l 1
 185 -75 l 1
 269 -145 l 1
 269 -199 l 1
 72 -199 l 1
 31 -168 l 1
454 254 m 1
 520 315 l 1
 584 315 l 1
 584 -127 l 1
 556 -159 l 1
 455 -68 l 1
 454 254 l 1
546 -169 m 1
 506 -200 l 1
 309 -200 l 1
 309 -146 l 1
 392 -76 l 1
 446 -76 l 1
 546 -169 l 1
EndSplineSet
Validated: 1
EndChar

StartChar: k
Encoding: 107 107 53
Width: 1000
VWidth: 0
Flags: HW
HStem: -200 21G<4 45> -200 21G<4 45> 254 90<141 263> 780 20G<4 45> 780 20G<4 45>
VStem: -7 135<-105 231 369 705> 410 57<-105 -82 682 705>
LayerCount: 2
Fore
SplineSet
128 369 m 1x36
 60 305 l 1
 -7 305 l 1
 -7 767 l 1
 22 800 l 1
 128 705 l 1
 128 369 l 1x36
141 344 m 1
 266 344 l 1
 295 295 l 1
 263 254 l 1
 128 254 l 1
 89 291 l 1
 141 344 l 1
391 369 m 1
 340 369 l 1
 340 470 l 1
 410 705 l 1
 467 705 l 1
 466 593 l 1
 391 369 l 1
128 231 m 1
 128 -105 l 1
 22 -200 l 1xa6
 -7 -167 l 1
 -7 295 l 1
 60 295 l 1
 128 231 l 1
391 231 m 1
 466 7 l 1
 467 -105 l 1
 410 -105 l 1
 340 130 l 1
 340 231 l 1
 391 231 l 1
EndSplineSet
Validated: 1
EndChar

StartChar: l
Encoding: 108 108 54
Width: 1000
VWidth: 0
Flags: HW
HStem: -199 124<131 185 392 446> 780 20G<4 44> 780 20G<4 44>
VStem: -7 129<-67 255 387 709>
LayerCount: 2
Fore
SplineSet
123 387 m 1xd0
 58 326 l 1
 -7 326 l 1
 -7 769 l 1
 21 800 l 1
 122 709 l 1
 123 387 l 1xd0
123 255 m 1
 122 -67 l 1
 21 -158 l 1
 -7 -127 l 1
 -7 317 l 1
 58 316 l 1
 123 255 l 1
31 -168 m 1
 131 -75 l 1
 185 -75 l 1
 269 -145 l 1
 269 -199 l 1
 72 -199 l 1
 31 -168 l 1
546 -169 m 1
 506 -200 l 1
 309 -200 l 1
 309 -146 l 1
 392 -76 l 1
 446 -76 l 1
 546 -169 l 1
EndSplineSet
Validated: 1
EndChar

StartChar: m
Encoding: 109 109 55
Width: 1000
VWidth: 0
Flags: HW
HStem: -199 21G<4 45 558 598> -199 21G<4 45 558 598> 779 20G<4 45 558 598> 779 20G<4 45 558 598>
VStem: -7 135<-104 231 369 704> 136 57<680 704> 409 57<681 704> 474 135<-105 230 370 705>
LayerCount: 2
Fore
SplineSet
128 369 m 1x2f
 60 305 l 1
 -7 305 l 1
 -7 767 l 1
 22 799 l 1
 128 704 l 1
 128 369 l 1x2f
212 368 m 1
 137 592 l 1
 136 704 l 1
 193 704 l 1
 263 469 l 1
 263 368 l 1
 212 368 l 1
474 370 m 1
 474 705 l 1
 580 800 l 1
 609 767 l 1
 609 305 l 1
 542 306 l 1
 474 370 l 1
390 369 m 1
 339 369 l 1
 339 469 l 1
 409 704 l 1
 466 705 l 1
 465 592 l 1
 390 369 l 1
128 231 m 1
 128 -104 l 1
 22 -199 l 1x8f
 -7 -167 l 1
 -7 295 l 1
 60 295 l 1
 128 231 l 1
474 230 m 1
 542 294 l 1
 609 295 l 1
 609 -167 l 1
 580 -200 l 1
 474 -105 l 1
 474 230 l 1
EndSplineSet
Validated: 1
EndChar

StartChar: n
Encoding: 110 110 56
Width: 1000
VWidth: 0
Flags: HW
HStem: -199 21G<4 45 558 598> -199 21G<4 45 558 598> 779 20G<4 45 558 598> 779 20G<4 45 558 598>
VStem: -7 135<-104 231 369 704> 136 57<680 704> 409 57<-104 -81> 474 135<-105 230 370 705>
LayerCount: 2
Fore
SplineSet
128 369 m 1x2f
 60 305 l 1
 -7 305 l 1
 -7 767 l 1
 22 799 l 1
 128 704 l 1
 128 369 l 1x2f
212 368 m 1
 137 592 l 1
 136 704 l 1
 193 704 l 1
 263 469 l 1
 263 368 l 1
 212 368 l 1
474 370 m 1
 474 705 l 1
 580 800 l 1
 609 767 l 1
 609 305 l 1
 542 306 l 1
 474 370 l 1
128 231 m 1
 128 -104 l 1
 22 -199 l 1x8f
 -7 -167 l 1
 -7 295 l 1
 60 295 l 1
 128 231 l 1
474 230 m 1
 542 294 l 1
 609 295 l 1
 609 -167 l 1
 580 -200 l 1
 474 -105 l 1
 474 230 l 1
390 231 m 1
 465 8 l 1
 466 -105 l 1
 409 -104 l 1
 339 131 l 1
 339 231 l 1
 390 231 l 1
EndSplineSet
Validated: 1
EndChar

StartChar: o
Encoding: 111 111 57
Width: 1000
VWidth: 0
Flags: HW
HStem: -199 119<126 178 377 428> 680 119<126 178 377 428>
VStem: -6 124<-72 236 364 672> 436 124<-73 236 364 673>
LayerCount: 2
Fore
SplineSet
118 364 m 1
 55 305 l 1
 -6 304 l 1
 -6 730 l 1
 21 760 l 1
 118 672 l 1
 118 364 l 1
30 769 m 1
 69 799 l 1
 258 799 l 1
 258 748 l 1
 178 680 l 1
 126 680 l 1
 30 769 l 1
436 364 m 1
 436 673 l 1
 534 760 l 1
 560 730 l 1
 561 305 l 1
 499 305 l 1
 436 364 l 1
524 770 m 1
 428 681 l 1
 377 681 l 1
 296 748 l 1
 296 800 l 1
 486 800 l 1
 524 770 l 1
118 236 m 1
 118 -72 l 1
 21 -160 l 1
 -6 -130 l 1
 -6 296 l 1
 55 295 l 1
 118 236 l 1
30 -169 m 1
 126 -80 l 1
 178 -80 l 1
 258 -148 l 1
 258 -199 l 1
 69 -199 l 1
 30 -169 l 1
436 236 m 1
 499 295 l 1
 561 295 l 1
 560 -130 l 1
 534 -160 l 1
 436 -73 l 1
 436 236 l 1
524 -170 m 1
 486 -200 l 1
 296 -200 l 1
 296 -148 l 1
 377 -81 l 1
 428 -81 l 1
 524 -170 l 1
EndSplineSet
Validated: 1
EndChar

StartChar: p
Encoding: 112 112 58
Width: 1000
VWidth: 0
Flags: HW
HStem: -200 21G<4 44> -200 21G<4 44> 235 86<135 252 326 443> 675 124<131 185 392 446>
VStem: -7 129<-109 213 345 667> 455 130<346 667>
LayerCount: 2
Fore
SplineSet
123 345 m 1x3c
 58 284 l 1
 -7 283 l 1
 -7 727 l 1
 21 758 l 1
 122 667 l 1
 123 345 l 1x3c
31 768 m 1
 72 799 l 1
 269 799 l 1
 269 745 l 1
 185 675 l 1
 131 675 l 1
 31 768 l 1
135 321 m 1
 255 321 l 1
 282 274 l 1
 252 235 l 1
 122 235 l 1
 86 270 l 1
 135 321 l 1
455 346 m 1
 455 667 l 1
 556 759 l 1
 584 727 l 1
 585 284 l 1
 520 285 l 1
 455 346 l 1
546 769 m 1
 446 676 l 1
 392 676 l 1
 309 746 l 1
 309 800 l 1
 506 800 l 1
 546 769 l 1
443 322 m 1
 492 271 l 1
 456 236 l 1
 326 236 l 1
 295 275 l 1
 323 322 l 1
 443 322 l 1
123 213 m 1
 122 -109 l 1
 21 -200 l 1xbc
 -7 -169 l 1
 -7 274 l 1
 58 274 l 1
 123 213 l 1
EndSplineSet
Validated: 1
EndChar

StartChar: q
Encoding: 113 113 59
Width: 1000
VWidth: 0
Flags: HW
HStem: -199 119<126 178 377 428> 680 119<126 178 377 428>
VStem: -6 124<-72 236 364 672> 377 52<-72 -49> 436 124<-73 236 364 673>
LayerCount: 2
Fore
SplineSet
118 364 m 1
 55 305 l 1
 -6 304 l 1
 -6 730 l 1
 21 760 l 1
 118 672 l 1
 118 364 l 1
30 769 m 1
 69 799 l 1
 258 799 l 1
 258 748 l 1
 178 680 l 1
 126 680 l 1
 30 769 l 1
436 364 m 1
 436 673 l 1
 534 760 l 1
 560 730 l 1
 561 305 l 1
 499 305 l 1
 436 364 l 1
524 770 m 1
 428 681 l 1
 377 681 l 1
 296 748 l 1
 296 800 l 1
 486 800 l 1
 524 770 l 1
118 236 m 1
 118 -72 l 1
 21 -160 l 1
 -6 -130 l 1
 -6 296 l 1
 55 295 l 1
 118 236 l 1
30 -169 m 1
 126 -80 l 1
 178 -80 l 1
 258 -148 l 1
 258 -199 l 1
 69 -199 l 1
 30 -169 l 1
436 236 m 1
 499 295 l 1
 561 295 l 1
 560 -130 l 1
 534 -160 l 1
 436 -73 l 1
 436 236 l 1
524 -170 m 1
 486 -200 l 1
 296 -200 l 1
 296 -148 l 1
 377 -81 l 1
 428 -81 l 1
 524 -170 l 1
359 237 m 1
 428 31 l 1
 429 -72 l 1
 377 -72 l 1
 312 144 l 1
 312 237 l 1
 359 237 l 1
EndSplineSet
Validated: 1
EndChar

StartChar: r
Encoding: 114 114 60
Width: 1000
VWidth: 0
Flags: HW
HStem: -200 21G<4 44> -200 21G<4 44> 235 86<135 252 326 443> 675 124<131 185 392 446>
VStem: -7 129<-109 213 345 667> 392 55<-109 -86> 455 130<346 667>
LayerCount: 2
Fore
SplineSet
123 345 m 1x3e
 58 284 l 1
 -7 283 l 1
 -7 727 l 1
 21 758 l 1
 122 667 l 1
 123 345 l 1x3e
31 768 m 1
 72 799 l 1
 269 799 l 1
 269 745 l 1
 185 675 l 1
 131 675 l 1
 31 768 l 1
135 321 m 1
 255 321 l 1
 282 274 l 1
 252 235 l 1
 122 235 l 1
 86 270 l 1
 135 321 l 1
455 346 m 1
 455 667 l 1
 556 759 l 1
 584 727 l 1
 585 284 l 1
 520 285 l 1
 455 346 l 1
546 769 m 1
 446 676 l 1
 392 676 l 1
 309 746 l 1
 309 800 l 1
 506 800 l 1
 546 769 l 1
443 322 m 1
 492 271 l 1
 456 236 l 1
 326 236 l 1
 295 275 l 1
 323 322 l 1
 443 322 l 1
123 213 m 1
 122 -109 l 1
 21 -200 l 1xbe
 -7 -169 l 1
 -7 274 l 1
 58 274 l 1
 123 213 l 1
374 213 m 1
 446 -1 l 1
 447 -109 l 1
 392 -109 l 1
 325 116 l 1
 325 213 l 1
 374 213 l 1
EndSplineSet
Validated: 1
EndChar

StartChar: s
Encoding: 115 115 61
Width: 1000
VWidth: 0
Flags: HW
HStem: -199 119<126 178 377 428> 258 83<129 242 313 425> 680 119<126 178 377 428>
VStem: -6 124<364 672> 436 124<-73 236>
LayerCount: 2
Fore
SplineSet
118 364 m 1
 55 305 l 1
 -6 304 l 1
 -6 730 l 1
 21 760 l 1
 118 672 l 1
 118 364 l 1
30 769 m 1
 69 799 l 1
 258 799 l 1
 258 748 l 1
 178 680 l 1
 126 680 l 1
 30 769 l 1
129 341 m 1
 245 341 l 1
 271 295 l 1
 242 258 l 1
 117 258 l 1
 82 292 l 1
 129 341 l 1
524 770 m 1
 428 681 l 1
 377 681 l 1
 296 748 l 1
 296 800 l 1
 486 800 l 1
 524 770 l 1
425 341 m 1
 472 293 l 1
 437 259 l 1
 313 259 l 1
 284 296 l 1
 309 341 l 1
 425 341 l 1
30 -169 m 1
 126 -80 l 1
 178 -80 l 1
 258 -148 l 1
 258 -199 l 1
 69 -199 l 1
 30 -169 l 1
436 236 m 1
 499 295 l 1
 561 295 l 1
 560 -130 l 1
 534 -160 l 1
 436 -73 l 1
 436 236 l 1
524 -170 m 1
 486 -200 l 1
 296 -200 l 1
 296 -148 l 1
 377 -81 l 1
 428 -81 l 1
 524 -170 l 1
EndSplineSet
Validated: 1
EndChar

StartChar: t
Encoding: 116 116 62
Width: 1000
VWidth: 0
Flags: HW
HStem: -200 21G<245 275> -200 21G<245 275> 671 128<96 152 366 421>
VStem: 228 61<-157 195 330 682>
LayerCount: 2
Fore
SplineSet
-7 767 m 1x30
 35 799 l 1
 238 799 l 1
 238 744 l 1
 152 671 l 1
 96 671 l 1
 -7 767 l 1x30
525 768 m 1
 421 672 l 1
 366 672 l 1
 279 744 l 1
 279 800 l 1
 483 800 l 1
 525 768 l 1
229 330 m 1
 228 683 l 1
 262 725 l 1
 290 682 l 1
 289 330 l 1
 259 289 l 1
 229 330 l 1
228 195 m 1
 259 236 l 1
 289 195 l 1
 289 -157 l 1
 261 -200 l 1xb0
 228 -158 l 1
 228 195 l 1
EndSplineSet
Validated: 1
EndChar

StartChar: u
Encoding: 117 117 63
Width: 1000
VWidth: 0
Flags: HW
HStem: -199 124<131 185 392 446> 779 20G<4 44 534 574> 779 20G<4 44 534 574>
VStem: -7 129<-67 254 387 708> 454 130<-68 254 388 709>
LayerCount: 2
Fore
SplineSet
123 387 m 1xd8
 57 326 l 1
 -7 325 l 1
 -7 768 l 1
 21 799 l 1
 122 708 l 1
 123 387 l 1xd8
454 388 m 1
 455 709 l 1
 556 800 l 1
 584 769 l 1
 584 326 l 1
 520 326 l 1
 454 388 l 1
123 254 m 1
 122 -67 l 1
 21 -158 l 1
 -7 -127 l 1
 -7 316 l 1
 57 316 l 1
 123 254 l 1
31 -168 m 1
 131 -75 l 1
 185 -75 l 1
 269 -145 l 1
 269 -199 l 1
 72 -199 l 1
 31 -168 l 1
454 254 m 1
 520 315 l 1
 584 315 l 1
 584 -127 l 1
 556 -159 l 1
 455 -68 l 1
 454 254 l 1
546 -169 m 1
 506 -200 l 1
 309 -200 l 1
 309 -146 l 1
 392 -76 l 1
 446 -76 l 1
 546 -169 l 1
EndSplineSet
Validated: 1
EndChar

StartChar: v
Encoding: 118 118 64
Width: 1000
VWidth: 0
Flags: HW
HStem: -200 21G<4 45> -200 21G<4 45> 780 20G<4 45> 780 20G<4 45>
VStem: -7 135<-105 231 369 705> 136 57<-104 -81> 410 57<682 705>
LayerCount: 2
Fore
SplineSet
128 369 m 1x2e
 60 305 l 1
 -7 305 l 1
 -7 767 l 1
 22 800 l 1
 128 705 l 1
 128 369 l 1x2e
391 369 m 1
 340 369 l 1
 340 470 l 1
 410 705 l 1
 467 705 l 1
 466 593 l 1
 391 369 l 1
128 231 m 1
 128 -105 l 1
 22 -200 l 1x8e
 -7 -167 l 1
 -7 295 l 1
 60 295 l 1
 128 231 l 1
213 232 m 1
 264 232 l 1
 264 131 l 1
 193 -104 l 1
 136 -104 l 1
 137 8 l 1
 213 232 l 1
EndSplineSet
Validated: 1
EndChar

StartChar: w
Encoding: 119 119 65
Width: 1000
VWidth: 0
Flags: HW
HStem: -199 21G<4 45 558 598> -199 21G<4 45 558 598> 779 20G<4 45 558 598> 779 20G<4 45 558 598>
VStem: -7 135<-104 231 369 704> 136 57<-104 -80> 409 57<-104 -81> 474 135<-105 230 370 705>
LayerCount: 2
Fore
SplineSet
128 369 m 1x2f
 60 305 l 1
 -7 305 l 1
 -7 767 l 1
 22 799 l 1
 128 704 l 1
 128 369 l 1x2f
474 370 m 1
 474 705 l 1
 580 800 l 1
 609 767 l 1
 609 305 l 1
 542 306 l 1
 474 370 l 1
128 231 m 1
 128 -104 l 1
 22 -199 l 1x8f
 -7 -167 l 1
 -7 295 l 1
 60 295 l 1
 128 231 l 1
212 232 m 1
 263 232 l 1
 263 131 l 1
 193 -104 l 1
 136 -104 l 1
 137 8 l 1
 212 232 l 1
474 230 m 1
 542 294 l 1
 609 295 l 1
 609 -167 l 1
 580 -200 l 1
 474 -105 l 1
 474 230 l 1
390 231 m 1
 465 8 l 1
 466 -105 l 1
 409 -104 l 1
 339 131 l 1
 339 231 l 1
 390 231 l 1
EndSplineSet
Validated: 1
EndChar

StartChar: x
Encoding: 120 120 66
Width: 1000
VWidth: 0
Flags: HW
HStem: -199 21G<-8 62 329 399> -199 21G<-8 62 329 399> 779 20G<-8 62 329 399> 779 20G<-8 62 329 399>
VStem: -9 70<-199 -176 776 799> 329 70<-200 -176 776 800>
LayerCount: 2
Fore
SplineSet
85 384 m 1x1c
 -8 660 l 1
 -9 799 l 1
 62 799 l 1
 148 508 l 1
 148 384 l 1
 85 384 l 1x1c
305 385 m 1
 242 385 l 1
 242 509 l 1
 329 800 l 1
 399 800 l 1
 398 661 l 1
 305 385 l 1
85 216 m 1
 148 216 l 1
 148 92 l 1
 61 -199 l 1
 -9 -199 l 1x4c
 -8 -60 l 1
 85 216 l 1
305 215 m 1
 398 -61 l 1
 399 -200 l 1
 329 -200 l 1
 242 91 l 1
 242 215 l 1
 305 215 l 1
EndSplineSet
Validated: 1
EndChar

StartChar: y
Encoding: 121 121 67
Width: 1000
VWidth: 0
Flags: HW
HStem: -199 124<131 185 392 446> 277 86<134 252 325 443> 779 20G<4 44 534 574> 779 20G<4 44 534 574>
VStem: -7 130<387 708> 455 129<-68 254 388 709>
LayerCount: 2
Fore
SplineSet
123 387 m 1xec
 57 326 l 1
 -7 325 l 1
 -7 768 l 1
 21 799 l 1
 123 708 l 1
 123 387 l 1xec
134 363 m 1
 255 363 l 1
 282 316 l 1
 252 277 l 1
 122 277 l 1
 86 312 l 1
 134 363 l 1
454 388 m 1
 455 709 l 1
 556 800 l 1
 584 769 l 1
 584 326 l 1
 520 326 l 1
 454 388 l 1
443 364 m 1
 492 313 l 1
 455 278 l 1
 325 278 l 1
 295 316 l 1
 322 364 l 1
 443 364 l 1
31 -168 m 1
 131 -75 l 1
 185 -75 l 1
 269 -145 l 1
 269 -199 l 1
 72 -199 l 1
 31 -168 l 1
454 254 m 1
 520 315 l 1
 584 315 l 1
 584 -127 l 1
 556 -159 l 1
 455 -68 l 1
 454 254 l 1
546 -169 m 1
 506 -200 l 1
 309 -200 l 1
 309 -146 l 1
 392 -76 l 1
 446 -76 l 1
 546 -169 l 1
EndSplineSet
Validated: 1
EndChar

StartChar: z
Encoding: 122 122 68
Width: 1000
VWidth: 0
Flags: HW
HStem: -199 119<96 148 347 398> 680 119<96 148 347 398>
VStem: 95 52<-72 -48> 347 52<649 672>
LayerCount: 2
Fore
SplineSet
0 769 m 1
 39 799 l 1
 228 799 l 1
 228 748 l 1
 148 680 l 1
 96 680 l 1
 0 769 l 1
494 770 m 1
 398 681 l 1
 347 681 l 1
 266 748 l 1
 266 800 l 1
 455 800 l 1
 494 770 l 1
329 363 m 1
 282 363 l 1
 282 456 l 1
 347 672 l 1
 399 672 l 1
 398 569 l 1
 329 363 l 1
0 -169 m 1
 96 -80 l 1
 148 -80 l 1
 228 -148 l 1
 228 -199 l 1
 39 -199 l 1
 0 -169 l 1
165 237 m 1
 212 237 l 1
 212 145 l 1
 147 -72 l 1
 95 -72 l 1
 96 32 l 1
 165 237 l 1
494 -170 m 1
 455 -200 l 1
 266 -200 l 1
 266 -148 l 1
 347 -81 l 1
 398 -81 l 1
 494 -170 l 1
EndSplineSet
Validated: 1
EndChar

StartChar: braceleft
Encoding: 123 123 69
Width: 1000
VWidth: 0
Flags: HW
HStem: -200 21G<78 148> -200 21G<78 148> 780 20G<78 148> 780 20G<78 148>
VStem: 78 70<-200 -176 776 800>
LayerCount: 2
Fore
SplineSet
54 385 m 1x18
 -9 385 l 1
 -8 509 l 1
 78 800 l 1
 148 800 l 1
 148 661 l 1
 54 385 l 1x18
54 215 m 1
 148 -61 l 1
 148 -200 l 1x48
 78 -200 l 1
 -8 91 l 1
 -9 215 l 1
 54 215 l 1
EndSplineSet
Validated: 1
EndChar

StartChar: braceright
Encoding: 125 125 70
Width: 1000
VWidth: 0
Flags: HW
HStem: -200 21G<-8 62> -200 21G<-8 62> 780 20G<-8 62> 780 20G<-8 62>
VStem: -9 70<-200 -176 776 800>
LayerCount: 2
Fore
SplineSet
86 384 m 1x18
 -8 661 l 1
 -9 800 l 1
 61 800 l 1
 149 509 l 1
 149 384 l 1
 86 384 l 1x18
86 216 m 1
 149 216 l 1
 149 91 l 1
 61 -200 l 1
 -9 -200 l 1x48
 -8 -61 l 1
 86 216 l 1
EndSplineSet
Validated: 1
EndChar

StartChar: bar
Encoding: 124 124 71
Width: 1000
VWidth: 0
Flags: HW
HStem: -200 21G<13 42> -200 21G<13 42> 780 20G<13 42> 780 20G<13 42>
VStem: -7 66<-154 227 373 754>
LayerCount: 2
Fore
SplineSet
-7 373 m 1x28
 -7 755 l 1
 29 800 l 1
 59 754 l 1
 59 373 l 1
 26 329 l 1
 -7 373 l 1x28
-7 227 m 1
 26 271 l 1
 59 227 l 1
 59 -154 l 1
 29 -200 l 1x88
 -7 -155 l 1
 -7 227 l 1
EndSplineSet
Validated: 1
EndChar

StartChar: asciitilde
Encoding: 126 126 72
Width: 1000
VWidth: 0
Flags: HW
HStem: 583 215<106 400 584 877>
LayerCount: 2
Fore
SplineSet
106 798 m 1
 408 798 l 1
 475 679 l 1
 400 583 l 1
 75 583 l 1
 -17 671 l 1
 106 798 l 1
877 800 m 1
 1000 673 l 1
 908 585 l 1
 584 585 l 1
 508 681 l 1
 576 800 l 1
 877 800 l 1
EndSplineSet
Validated: 1
EndChar

StartChar: plus
Encoding: 43 43 73
Width: 1000
VWidth: 0
Flags: HW
HStem: -200 21G<213 243> -200 21G<213 243> 251 96<55 186 268 399> 780 20G<214 243> 780 20G<214 243>
VStem: 194 66<-154 227 373 754>
LayerCount: 2
Fore
SplineSet
55 347 m 1x24
 189 347 l 1
 220 294 l 1
 186 251 l 1
 41 251 l 1
 0 291 l 1
 55 347 l 1x24
399 348 m 1
 454 291 l 1
 413 252 l 1
 268 252 l 1
 234 295 l 1
 264 348 l 1
 399 348 l 1
194 373 m 1
 194 755 l 1
 230 800 l 1x34
 260 754 l 1
 260 373 l 1
 227 329 l 1
 194 373 l 1
194 227 m 1
 227 271 l 1
 260 227 l 1
 260 -154 l 1
 229 -200 l 1xa4
 194 -155 l 1
 194 227 l 1
EndSplineSet
Validated: 1
EndChar

StartChar: hyphen
Encoding: 45 45 74
Width: 1000
VWidth: 0
Flags: HW
HStem: 583 215<106 400 584 877>
LayerCount: 2
Fore
SplineSet
106 798 m 1
 408 798 l 1
 475 679 l 1
 400 583 l 1
 75 583 l 1
 -17 671 l 1
 106 798 l 1
877 800 m 1
 1000 673 l 1
 908 585 l 1
 584 585 l 1
 508 681 l 1
 576 800 l 1
 877 800 l 1
EndSplineSet
Validated: 1
EndChar
